<?xml version="1.0" encoding="utf-8"?>
<svg version="1.1" xmlns="http://www.w3.org/2000/svg" xmlns:xlink="http://www.w3.org/1999/xlink" x="0px" y="0px" width="180px"
	 height="180px" viewBox="0 0 180 180" enable-background="new 0 0 180 180" xml:space="preserve">
<g id="Layer_1">
	<rect fill="#B05AE2" width="180" height="180"/>
	<g>
		<g>
			<path fill="#F1F1F3" d="M90.001,41.5854c-26.9116,0-48.8062,21.8931-48.8062,48.8042c0,26.9121,21.8945,48.8047,48.8062,48.8047
				c26.9102,0,48.8047-21.8926,48.8047-48.8047C138.8057,63.4785,116.9111,41.5854,90.001,41.5854z M90.001,126.8799
				c-20.1201,0-36.4902-16.3691-36.4902-36.4902S69.8809,53.9009,90.001,53.9009c20.1191,0,36.4893,16.3677,36.4893,36.4888
				S110.1201,126.8799,90.001,126.8799z"/>
			<path fill="#F1F1F3" d="M104.292,102.1152l-3.8311,6.8379h-0.1172l-11.1538,19.3193c0.2725,0.0049,0.5371,0.041,0.811,0.041
				c12.2461,0,23.1279-5.8613,30.0645-14.8994l-11.1455-19.3125L104.292,102.1152z"/>
			<path fill="#F1F1F3" d="M78.3174,74.1514l1.269-2.2646h0.0376l11.189-19.3779c-0.2744-0.0063-0.5386-0.0425-0.812-0.0425
				c-12.249,0-23.1299,5.8633-30.0669,14.9028l11.1533,19.3032L78.3174,74.1514z"/>
			<path fill="#F1F1F3" d="M76.6152,103.6553L57.6099,70.7666c-3.4858,5.7339-5.5327,12.436-5.5327,19.623
				c0,5.2676,1.084,10.2861,3.0352,14.8516h22.3931L76.6152,103.6553z"/>
			<path fill="#F1F1F3" d="M79.5864,108.9531H56.9663c5.7432,10.1797,16.0435,17.4297,28.1177,19.0059l10.9736-19.0059H79.5864z"/>
			<path fill="#F1F1F3" d="M124.8896,75.54h-22.3828l0.3545,0.6294l19.5293,33.8442c3.4863-5.7334,5.5332-12.4365,5.5332-19.624
				C127.9238,85.1221,126.8389,80.1045,124.8896,75.54z"/>
			<path fill="#F1F1F3" d="M123.0352,71.8276c-5.7422-10.1792-16.042-17.4307-28.1162-19.0063L83.9458,71.8276H123.0352z"/>
		</g>
		<g>
			<path fill="#F1F1F3" d="M84.2612,152.5313c0.3516,0.1611,0.7671,0.2402,1.1812,0.2402s0.8306-0.0791,1.1816-0.2402
				c0.4595-0.209,11.3789-5.2109,22.4619-13.4033c7.165-5.2959,12.6855-10.6953,16.4785-16.0605
				c-8.5244,8.208-23.3086,13.6357-40.1221,13.6357c-4.6147,0-9.0767-0.4082-13.2983-1.1729L84.2612,152.5313z"/>
		</g>
	</g>
</g>
<g id="Layer_3" display="none">
	
		<text transform="matrix(1 0 0 1 34.7573 168.2822)" display="inline" fill="#F1F1F3" font-family="'Colaborate-Bold'" font-size="16.6899">cg Studio Map</text>
</g>
<g id="Layer_2" display="none">
	<g display="inline">
		
			<line opacity="0.2" fill="none" stroke="#000000" stroke-width="2" stroke-miterlimit="10" x1="12.1416" y1="0.2603" x2="12.1416" y2="179.7363"/>
		
			<line opacity="0.2" fill="none" stroke="#000000" stroke-width="2" stroke-miterlimit="10" x1="179.7363" y1="167.9297" x2="0.2646" y2="167.9297"/>
		
			<line opacity="0.2" fill="none" stroke="#000000" stroke-width="2" stroke-miterlimit="10" x1="179.7363" y1="12.0703" x2="0.2646" y2="12.0703"/>
		<line opacity="0.2" fill="none" stroke="#000000" stroke-width="2" stroke-miterlimit="10" x1="180" y1="90" x2="0" y2="90"/>
		
			<line opacity="0.2" fill="none" stroke="#000000" stroke-width="2" stroke-miterlimit="10" x1="179.7363" y1="179.7363" x2="0.2646" y2="0.2603"/>
		
			<line opacity="0.2" fill="none" stroke="#000000" stroke-width="2" stroke-miterlimit="10" x1="179.7363" y1="0.2603" x2="0.2646" y2="179.7363"/>
		
			<line opacity="0.2" fill="none" stroke="#000000" stroke-width="2" stroke-miterlimit="10" x1="180" y1="123.5859" x2="0" y2="123.5859"/>
		
			<line opacity="0.2" fill="none" stroke="#000000" stroke-width="2" stroke-miterlimit="10" x1="180" y1="56.4136" x2="0" y2="56.4136"/>
		
			<line opacity="0.2" fill="none" stroke="#000000" stroke-width="2" stroke-miterlimit="10" x1="167.8594" y1="179.7363" x2="167.8594" y2="0.2603"/>
		
			<line opacity="0.2" fill="none" stroke="#000000" stroke-width="2" stroke-miterlimit="10" x1="90.001" y1="180" x2="90.001" y2="0.0005"/>
		
			<line opacity="0.2" fill="none" stroke="#000000" stroke-width="2" stroke-miterlimit="10" x1="123.5205" y1="180" x2="123.5205" y2="0.0005"/>
		
			<line opacity="0.2" fill="none" stroke="#000000" stroke-width="2" stroke-miterlimit="10" x1="56.4834" y1="180" x2="56.4834" y2="0.0005"/>
		
			<ellipse opacity="0.2" fill="none" stroke="#000000" stroke-width="2" stroke-miterlimit="10" cx="90.002" cy="90" rx="33.5186" ry="33.5859"/>
		
			<ellipse opacity="0.2" fill="none" stroke="#000000" stroke-width="2" stroke-miterlimit="10" cx="90.0005" cy="90" rx="47.5083" ry="47.2285"/>
		<path opacity="0.2" fill="none" stroke="#000000" stroke-width="2" stroke-miterlimit="10" d="M167.8594,90
			c0,43.04-34.8584,77.9297-77.8584,77.9297C47,167.9297,12.1416,133.04,12.1416,90c0-43.043,34.8584-77.9297,77.8594-77.9297
			C133.001,12.0703,167.8594,46.957,167.8594,90z"/>
		<path opacity="0.2" fill="none" stroke="#000000" stroke-width="2" stroke-miterlimit="10" d="M0.2646,139.3486
			c0,22.3057,18.1904,40.3877,40.626,40.3877l98.2197-0.0176c22.4355,0,40.626-18.085,40.626-40.3867V40.6523
			c0-22.3066-18.1885-40.3921-40.626-40.3921L40.8906,0.2808c-22.4346,0-40.626,18.083-40.626,40.3896V139.3486z"/>
	</g>
</g>
</svg>
