<svg xmlns="http://www.w3.org/2000/svg" xmlns:xlink="http://www.w3.org/1999/xlink" width="36" height="36" viewBox="0 0 36 36"><image overflow="visible" opacity=".6" enable-background="new" width="81" height="75" xlink:href="AF146B65.png" transform="translate(-24 -3.001)"/><image overflow="visible" opacity=".25" enable-background="new" width="104" height="83" xlink:href="AF146B67.png" transform="translate(-33.999 -11.001)"/><path opacity=".85" fill="#B05AE2" d="M32.247 16.924c0-8.23-6.694-14.924-14.925-14.924-8.23 0-14.924 6.695-14.924 14.924 0 6.328 3.964 11.733 9.534 13.901l3.635 5.101v.002c.107.049.235.072.36.072.128 0 .256-.023.363-.072.14-.066 3.479-1.596 6.87-4.099 1.786-1.323 3.22-2.666 4.324-4.006 2.922-2.726 4.763-6.597 4.763-10.899zm-19.018 4.058l.001-.002-5.563-9.623c.213-.368.448-.72.7-1.06l3.172 5.491 2.212-3.83-.001.002.388-.694h.01l3.177-5.5c.428 0 .849.03 1.265.078l-3.12 5.404h11.443c.218.367.418.744.594 1.136h-6.36l.11.19 5.722 9.919c-.214.368-.448.72-.701 1.06l-3.168-5.493-1.416 2.45-1.17 2.09h-.037l-3.165 5.481v-.001c-.429 0-.851-.03-1.267-.077l3.12-5.401h-5.037v-.002h-6.405c-.217-.366-.417-.743-.593-1.135h6.361l-.272-.483z"/></svg>
