<?xml version="1.0" encoding="utf-8"?>
<!-- Generator: Adobe Illustrator 16.0.0, SVG Export Plug-In . SVG Version: 6.00 Build 0)  -->
<!DOCTYPE svg PUBLIC "-//W3C//DTD SVG 1.1//EN" "http://www.w3.org/Graphics/SVG/1.1/DTD/svg11.dtd">
<svg version="1.1" id="Layer_1" xmlns="http://www.w3.org/2000/svg" xmlns:xlink="http://www.w3.org/1999/xlink" x="0px" y="0px"
	 width="512px" height="512px" viewBox="0 0 512 512" enable-background="new 0 0 512 512" xml:space="preserve">
<path fill="#323133" d="M48.9336,18.7153V9.3574h-9.3574V0H11.5034v9.3574H-7.2119V0h-28.0728v9.3574h-9.3579v9.3579H-54v28.0728
	h9.3574v9.3574h9.3579v9.3574h9.3574v9.3579h9.3574v9.3574h9.3579v9.3579h18.7153v-9.3579h9.3574v-9.3574h9.3574v-9.3579h9.3579
	v-9.3574h9.3574v-9.3574h9.3574V18.7153H48.9336z"/>
<polygon fill="none" stroke="#B05AE2" stroke-width="6.431" stroke-miterlimit="10" points="249.7651,332 262.627,332 
	262.627,325.5693 269.0586,325.5693 269.0586,319.1377 275.4893,319.1377 275.4893,312.707 281.9199,312.707 281.9199,306.2764 
	288.3516,306.2764 288.3516,299.8447 294.7822,299.8447 294.7822,280.5518 288.3516,280.5518 288.3516,274.1211 281.9199,274.1211 
	281.9199,267.6904 262.627,267.6904 262.627,274.1211 249.7651,274.1211 249.7651,267.6904 230.4722,267.6904 230.4722,274.1211 
	224.041,274.1211 224.041,280.5518 217.6104,280.5518 217.6104,299.8447 224.041,299.8447 224.041,306.2764 230.4722,306.2764 
	230.4722,312.707 236.9033,312.707 236.9033,319.1377 243.334,319.1377 243.334,325.5693 249.7651,325.5693 "/>
<path fill="#323133" d="M557.6426,18.7153V9.3574h-9.3574V0h-28.0723v9.3574h-18.7158V0h-28.0723v9.3574h-9.3584v9.3579h-9.3574
	v28.0728h9.3574v9.3574h9.3584v9.3574h9.3574v9.3579h9.3574v9.3574h9.3574v9.3579h18.7158v-9.3579h9.3574v-9.3574h9.3574v-9.3579
	h9.3574v-9.3574h9.3574v-9.3574H567V18.7153H557.6426z"/>
</svg>
