<?xml version="1.0" standalone="no"?>
<!DOCTYPE svg PUBLIC "-//W3C//DTD SVG 20010904//EN"
 "http://www.w3.org/TR/2001/REC-SVG-20010904/DTD/svg10.dtd">
<svg version="1.0" xmlns="http://www.w3.org/2000/svg"
 width="700.000000pt" height="700.000000pt" viewBox="0 0 700.000000 700.000000"
 preserveAspectRatio="xMidYMid meet">
<metadata>
Created by potrace 1.11, written by Peter Selinger 2001-2013
</metadata>
<g transform="translate(0.000000,700.000000) scale(0.100000,-0.100000)"
fill="#000000" stroke="none">
<path d="M3289 6185 c-2 -2 -29 -6 -59 -9 -94 -10 -122 -15 -296 -51 -50 -11
-224 -68 -308 -101 -698 -278 -1235 -890 -1416 -1614 -39 -157 -44 -185 -65
-385 -7 -66 -8 -327 -1 -385 3 -25 8 -70 11 -101 3 -31 8 -67 10 -80 3 -13 10
-51 16 -84 48 -268 176 -584 336 -830 119 -183 287 -375 442 -505 29 -25 65
-55 80 -68 104 -92 484 -310 598 -344 6 -1 141 -185 300 -408 l288 -405 47 -3
c43 -3 66 7 255 103 114 59 219 115 233 124 14 10 54 34 90 54 36 21 74 43 84
50 193 121 306 194 356 229 73 51 371 281 419 323 107 93 236 218 305 296 22
24 95 103 162 174 143 152 188 206 276 335 230 337 367 723 403 1140 14 159 5
416 -19 545 -2 11 -7 40 -11 65 -32 205 -130 485 -244 695 -355 656 -992 1107
-1723 1220 -18 3 -49 8 -68 11 -40 6 -496 15 -501 9z m398 -600 c10 -3 -178
-346 -252 -462 -8 -11 -27 -45 -44 -75 -16 -29 -63 -111 -104 -183 -42 -71
-74 -131 -72 -133 1 -2 409 -4 905 -5 l903 -2 44 -84 c24 -46 42 -86 39 -88
-2 -2 -227 -4 -500 -4 -273 0 -496 -2 -496 -4 0 -4 229 -404 395 -690 81 -140
76 -132 245 -425 84 -146 181 -313 216 -373 l63 -107 -34 -58 c-19 -31 -45
-69 -57 -84 l-23 -27 -249 434 -250 434 -93 -162 c-51 -89 -97 -169 -102 -177
-6 -8 -42 -73 -82 -145 -39 -71 -106 -186 -147 -255 -110 -184 -123 -207 -316
-541 l-176 -306 -97 4 c-54 2 -98 5 -100 6 -1 2 18 39 44 82 25 44 54 95 64
113 48 84 174 300 190 327 10 17 26 46 37 65 11 19 50 87 86 150 l67 115 -908
5 -908 5 -42 80 c-23 44 -42 83 -42 88 -1 4 224 7 499 7 275 0 500 2 500 5 0
3 -11 23 -25 45 -14 22 -25 42 -25 44 0 2 -72 130 -161 283 -88 153 -201 348
-250 433 -50 85 -94 162 -99 170 -15 25 -141 242 -168 290 -14 25 -60 105
-103 179 -43 73 -80 139 -81 146 -3 14 90 165 102 165 4 0 23 -26 41 -57 46
-83 60 -107 119 -208 57 -98 75 -129 127 -220 19 -33 43 -76 55 -95 11 -19 28
-48 37 -65 9 -16 41 -72 71 -122 l54 -93 52 88 c28 49 62 108 76 133 14 24 35
60 46 79 12 19 27 46 33 60 5 13 13 27 17 30 4 3 16 21 26 40 25 45 193 339
236 410 18 30 44 75 58 100 39 70 347 602 361 625 12 19 21 21 100 17 47 -1
91 -5 98 -7z"/>
</g>
</svg>
