<svg xmlns="http://www.w3.org/2000/svg" width="120" height="120" viewBox="0 0 120 120"><path fill="#5AE2B0" d="M53.833 102.834v-9.168h-9.166v-9.166h-9.167v-9.166h-9.166v-9.166h-9.167v-9.166h-9.167v-21.501h9.167v-9.166h9.167v-9.167h21.499v9.167h24.334v-9.167h21.5v9.167h9.166v9.166h9.167v21.501h-9.167v9.166h-9.166v9.166h-9.167v9.166h-9.166v9.166h-9.167v9.168z"/><path fill="#F1F1F3" d="M90.667 20.166v9.167h9.166v9.166h9.167v15.501h-9.167v9.167h-9.166v9.167h-9.167v9.167h-9.166v9.166h-9.167v9.168h-6.334v-9.168h-9.166v-9.166h-9.167v-9.166h-9.166v-9.167h-9.167v-9.166h-9.167v-15.501h9.167v-9.166h9.167v-9.167h15.499v9.167h30.334v-9.167h15.5m6-6h-27.5v9.167h-18.334v-9.167h-27.499v9.167h-9.167v9.166h-9.167v27.501h9.167v9.166h9.167v9.166h9.166v9.166h9.167v9.166h9.166v9.168h18.334v-9.168h9.167v-9.166h9.166v-9.166h9.167v-9.166h9.166v-9.166h9.167v-27.501h-9.167v-9.166h-9.166v-9.167z"/></svg>