<?xml version="1.0" encoding="utf-8"?>
<!-- Generator: Adobe Illustrator 16.0.0, SVG Export Plug-In . SVG Version: 6.00 Build 0)  -->
<!DOCTYPE svg PUBLIC "-//W3C//DTD SVG 1.1//EN" "http://www.w3.org/Graphics/SVG/1.1/DTD/svg11.dtd">
<svg version="1.1" id="Layer_1" xmlns="http://www.w3.org/2000/svg" xmlns:xlink="http://www.w3.org/1999/xlink" x="0px" y="0px"
	 width="120px" height="120px" viewBox="0 0 120 120" enable-background="new 0 0 120 120" xml:space="preserve">
<g>
	<polygon fill="#5AE2B0" points="53.833,102.8335 53.833,93.6655 44.667,93.6655 44.667,84.4995 35.5,84.4995 35.5,75.333 
		26.334,75.333 26.334,66.1665 17.167,66.1665 17.167,57 8,57 8,35.4995 17.167,35.4995 17.167,26.3335 26.334,26.3335 
		26.334,17.1665 47.833,17.1665 47.833,26.3335 72.167,26.3335 72.167,17.1665 93.667,17.1665 93.667,26.3335 102.833,26.3335 
		102.833,35.4995 112,35.4995 112,57 102.833,57 102.833,66.1665 93.667,66.1665 93.667,75.333 84.5,75.333 84.5,84.4995 
		75.334,84.4995 75.334,93.6655 66.167,93.6655 66.167,102.8335 	"/>
	<path fill="#F1F1F3" d="M90.667,20.1665v3.167v6h6h3.166v3.166v6h6H109V54h-3.167h-6v6v3.1665h-3.166h-6v6v3.1665H87.5h-6v6v3.1665
		h-3.166h-6v6v3.166h-3.167h-6v6v3.168h-6.334v-3.168v-6h-6h-3.166v-3.166v-6h-6H38.5V78.333v-6h-6h-3.166v-3.1665v-6h-6h-3.167V60
		v-6h-6H11V38.4995h3.167h6v-6v-3.166h3.167h6v-6v-3.167h15.499v3.167v6h6h18.334h6v-6v-3.167H90.667 M96.667,14.1665h-27.5v9.167
		H50.833v-9.167H23.334v9.167h-9.167v9.166H5V60h9.167v9.1665h9.167v9.1665H32.5v9.1665h9.167v9.166h9.166v9.168h18.334v-9.168
		h9.167v-9.166H87.5V78.333h9.167v-9.1665h9.166V60H115V32.4995h-9.167v-9.166h-9.166V14.1665L96.667,14.1665z"/>
</g>
</svg>
