<svg xmlns="http://www.w3.org/2000/svg" width="40" height="40" viewBox="0 0 40 40">
<g fill="#B05AE2"><path d="M19.998 6.878c-7.329 0-13.294 5.963-13.294 13.294 0 7.332 5.965 13.295 13.294 13.295 7.332 0 13.297-5.964 13.297-13.295 0-7.33-5.965-13.294-13.297-13.294zm0 23.235c-5.479 0-9.938-4.459-9.938-9.941 0-5.481 4.459-9.94 9.938-9.94 5.482 0 9.941 4.459 9.941 9.94 0 5.482-4.459 9.941-9.941 9.941zM23.893 23.367l-1.044 1.861h-.031l-3.038 5.264.219.011c3.337 0 6.302-1.597 8.19-4.059l-3.035-5.261-1.261 2.184zM16.816 15.75l.347-.617h.01l3.048-5.279-.223-.011c-3.334 0-6.299 1.597-8.188 4.06l3.038 5.258 1.968-3.411zM16.353 23.786l-5.176-8.958c-.95 1.562-1.508 3.387-1.508 5.345 0 1.435.296 2.802.827 4.045h6.1l-.243-.432zM17.163 25.229h-6.162c1.564 2.773 4.371 4.749 7.659 5.178l2.989-5.178h-4.486zM29.503 16.128h-6.097l.097.171 5.319 9.218c.95-1.561 1.508-3.387 1.508-5.345 0-1.434-.296-2.801-.827-4.044zM28.998 15.117c-1.564-2.773-4.37-4.749-7.658-5.178l-2.99 5.178h10.648z"/></g>
<path fill="#B05AE2" d="M32.718 24.059c-.882-.398-9.38 8.729-13.96 8.729-1.257 0-3.004-.579-3.707-.295.772.188 1.912 3.301 2.696 4.605.137.203.673.234.987.11 8.278-3.214 12.319-8.373 13.984-13.149z"/><path d="M22.071 18.157c.064.403-.156.738-.663 1.005-.879-.052-1.084.192-.612.735.124.122.367 0 .367 0 .112.111-.618 1.448-.734 1.593 0 1.721-1.196-.352-1.226-.736-.507-.117-.875-.402-1.102-.857.141-.906.549-1.191 1.225-.858.245.245.735 0 .98 0-.486-.604-1.04-1.798.69-1.613-2.772-1.083-5.354 2.539-3.118 4.776 2.631 2.631 6.703-1.35 4.193-4.045z" fill="none"/>
<circle cx="20" cy="20" r="20" fill="none"/>
</svg>