<?xml version="1.0" encoding="utf-8"?>
<svg version="1.1" id="Layer_1" xmlns="http://www.w3.org/2000/svg" xmlns:xlink="http://www.w3.org/1999/xlink" x="0px" y="0px"
	 width="40px" height="40px" viewBox="0 0 40 40" enable-background="new 0 0 40 40" xml:space="preserve">
<rect x="-0.0098" fill="#B05AE2" width="40" height="40"/>
<g>
	<g>
		<g>
			<path fill="#F1F1F3" d="M19.998,6.8784c-7.3291,0-13.2939,5.9634-13.2939,13.2939c0,7.3311,5.9648,13.2954,13.2939,13.2954
				c7.332,0,13.2969-5.9644,13.2969-13.2954C33.2949,12.8418,27.3301,6.8784,19.998,6.8784z M19.998,30.1133
				c-5.4795,0-9.9385-4.4595-9.9385-9.9409c0-5.481,4.459-9.9399,9.9385-9.9399c5.4824,0,9.9414,4.459,9.9414,9.9399
				C29.9395,25.6538,25.4805,30.1133,19.998,30.1133z"/>
			<path fill="#F1F1F3" d="M23.8926,23.3667l-1.0439,1.8623h-0.0313l-3.0381,5.2632c0.0742,0.001,0.1465,0.0107,0.2188,0.0107
				c3.3369,0,6.3018-1.5972,8.1904-4.0586l-3.0352-5.2603L23.8926,23.3667z"/>
			<path fill="#F1F1F3" d="M16.8164,15.7495l0.3467-0.6172h0.0098l3.0479-5.2788c-0.0742-0.0015-0.1465-0.0112-0.2227-0.0112
				c-3.334,0-6.2988,1.5972-8.1885,4.0596l3.0381,5.2583L16.8164,15.7495z"/>
			<path fill="#F1F1F3" d="M16.3525,23.7861l-5.1758-8.9585c-0.9502,1.5615-1.5078,3.3867-1.5078,5.3447
				c0,1.4355,0.2959,2.8027,0.8271,4.0454h6.0996L16.3525,23.7861z"/>
			<path fill="#F1F1F3" d="M17.1631,25.229H11.001c1.5645,2.7734,4.3711,4.7485,7.6592,5.1772l2.9893-5.1772H17.1631z"/>
			<path fill="#F1F1F3" d="M29.5029,16.1279h-6.0967l0.0967,0.1714l5.3193,9.2188c0.9502-1.5615,1.5078-3.3877,1.5078-5.3457
				C30.3301,18.7378,30.0342,17.3711,29.5029,16.1279z"/>
			<path fill="#F1F1F3" d="M28.998,15.1167c-1.5645-2.7734-4.3701-4.7485-7.6582-5.1777l-2.9902,5.1777H28.998z"/>
		</g>
		<g>
			<path fill="#F1F1F3" d="M32.7178,24.0586c-0.8818-0.3984-9.3799,8.7295-13.96,8.7295c-1.2568,0-3.0039-0.5786-3.707-0.2949
				c0.7725,0.1885,1.9121,3.3008,2.6963,4.6055c0.1367,0.2031,0.6729,0.2344,0.9873,0.1108
				C27.0117,33.9941,31.0527,28.835,32.7178,24.0586z"/>
		</g>
		<path opacity="0" fill="#F1F1F3" d="M22.0713,18.1567c0.0645,0.4033-0.1563,0.7383-0.6631,1.0054
			c-0.8789-0.0522-1.084,0.1924-0.6123,0.7349c0.124,0.1221,0.3672,0,0.3672,0c0.1123,0.1108-0.6182,1.4478-0.7344,1.5928
			c0,1.7212-1.1963-0.3506-1.2256-0.7354c-0.5068-0.1172-0.875-0.4028-1.1016-0.8574c0.1406-0.9058,0.5488-1.1909,1.2246-0.8579
			c0.2451,0.2446,0.7354,0,0.9805,0c-0.4863-0.6045-1.04-1.7983,0.6904-1.6128c-2.7725-1.0835-5.3545,2.5391-3.1182,4.7759
			C20.5088,24.833,24.5811,20.8521,22.0713,18.1567C22.0752,18.1709,22.5566,18.6772,22.0713,18.1567z"/>
	</g>
	<circle opacity="0" fill="#F1F1F3" cx="20" cy="20" r="20"/>
</g>
</svg>
