<?xml version="1.0" encoding="utf-8"?>
<!-- Generator: Adobe Illustrator 16.0.0, SVG Export Plug-In . SVG Version: 6.00 Build 0)  -->
<!DOCTYPE svg PUBLIC "-//W3C//DTD SVG 1.1//EN" "http://www.w3.org/Graphics/SVG/1.1/DTD/svg11.dtd">
<svg version="1.1" id="Layer_1" xmlns="http://www.w3.org/2000/svg" xmlns:xlink="http://www.w3.org/1999/xlink" x="0px" y="0px"
	 width="40px" height="40px" viewBox="0 0 40 40" enable-background="new 0 0 40 40" xml:space="preserve">
<g>
	<g>
		<g>
			<path fill="#B05AE2" d="M19.998,6.878c-7.329,0-13.294,5.963-13.294,13.294c0,7.332,5.965,13.295,13.294,13.295
				c7.332,0,13.297-5.964,13.297-13.295C33.295,12.842,27.33,6.878,19.998,6.878z M19.998,30.113c-5.479,0-9.938-4.459-9.938-9.941
				c0-5.481,4.459-9.94,9.938-9.94c5.482,0,9.941,4.459,9.941,9.94C29.939,25.654,25.48,30.113,19.998,30.113z"/>
			<path fill="#B05AE2" d="M23.893,23.367l-1.044,1.861h-0.031l-3.038,5.264c0.074,0.001,0.146,0.011,0.219,0.011
				c3.337,0,6.302-1.597,8.19-4.059l-3.035-5.261L23.893,23.367z"/>
			<path fill="#B05AE2" d="M16.816,15.75l0.347-0.617h0.01l3.048-5.279c-0.074-0.001-0.146-0.011-0.223-0.011
				c-3.334,0-6.299,1.597-8.188,4.06l3.038,5.258L16.816,15.75z"/>
			<path fill="#B05AE2" d="M16.353,23.786l-5.176-8.958c-0.95,1.562-1.508,3.387-1.508,5.345c0,1.435,0.296,2.802,0.827,4.045h6.1
				L16.353,23.786z"/>
			<path fill="#B05AE2" d="M17.163,25.229h-6.162c1.564,2.773,4.371,4.749,7.659,5.178l2.989-5.178H17.163z"/>
			<path fill="#B05AE2" d="M29.503,16.128h-6.097l0.097,0.171l5.319,9.218c0.95-1.561,1.508-3.387,1.508-5.345
				C30.33,18.738,30.034,17.371,29.503,16.128z"/>
			<path fill="#B05AE2" d="M28.998,15.117c-1.564-2.773-4.37-4.749-7.658-5.178l-2.99,5.178H28.998z"/>
		</g>
		<g>
			<path fill="#B05AE2" d="M32.718,24.059c-0.882-0.398-9.38,8.729-13.96,8.729c-1.257,0-3.004-0.579-3.707-0.295
				c0.772,0.188,1.912,3.301,2.696,4.605c0.137,0.203,0.673,0.234,0.987,0.11C27.012,33.994,31.053,28.835,32.718,24.059z"/>
		</g>
		<path fill="#B05AE2" fill-opacity="0" d="M22.071,18.157c0.064,0.403-0.156,0.738-0.663,1.005
			c-0.879-0.052-1.084,0.192-0.612,0.735c0.124,0.122,0.367,0,0.367,0c0.112,0.111-0.618,1.448-0.734,1.593
			c0,1.721-1.196-0.352-1.226-0.736c-0.507-0.117-0.875-0.402-1.102-0.857c0.141-0.906,0.549-1.191,1.225-0.858
			c0.245,0.245,0.735,0,0.98,0c-0.486-0.604-1.04-1.798,0.69-1.613c-2.772-1.083-5.354,2.539-3.118,4.776
			C20.509,24.833,24.581,20.852,22.071,18.157C22.075,18.171,22.557,18.677,22.071,18.157z"/>
	</g>
	<circle fill="#B05AE2" fill-opacity="0" cx="20" cy="20" r="20"/>
</g>
</svg>
