<?xml version="1.0" encoding="utf-8"?>
<svg version="1.1" id="Layer_1" xmlns="http://www.w3.org/2000/svg" xmlns:xlink="http://www.w3.org/1999/xlink" x="0px" y="0px"
	 width="50px" height="50px" viewBox="0 0 50 50" enable-background="new 0 0 50 50" xml:space="preserve">
<g>
	<rect fill="#323133" width="50" height="50"/>
	<g>
		<path fill="#FFFFFF" d="M7.4082,18.7451h7.4229v23.8594H7.4082V18.7451z M11.1221,6.8838c2.3711,0,4.2979,1.9277,4.2979,4.3008
			c0,2.374-1.9268,4.2988-4.2979,4.2988c-2.3818,0-4.3018-1.9248-4.3018-4.2988C6.8203,8.8115,8.7402,6.8838,11.1221,6.8838"/>
		<path fill="#FFFFFF" d="M19.4844,18.7451h7.1074v3.2617h0.1025c0.9883-1.876,3.4082-3.8535,7.0166-3.8535
			c7.5088,0,8.8955,4.9395,8.8955,11.3652v13.0859h-7.415V31.002c0-2.7666-0.0479-6.3271-3.8535-6.3271
			c-3.8584,0-4.4473,3.0156-4.4473,6.1289v11.8008h-7.4063V18.7451z"/>
	</g>
</g>
</svg>
