<?xml version="1.0" encoding="utf-8"?>
<svg version="1.1" id="social-icon" xmlns="http://www.w3.org/2000/svg" xmlns:xlink="http://www.w3.org/1999/xlink" width="50px" viewBox="0 0 50 50" preserveAspectRatio="xMidYmin meet">
<g>

	<path class="anim-twitter" d="M45,12.5947c-1.4688,0.6523-3.0498,1.0938-4.7119,1.291c1.6973-1.0156,2.9951-2.625,3.6113-4.541
		c-1.5879,0.9404-3.3438,1.623-5.2139,1.9922c-1.4961-1.5957-3.6299-2.5918-5.9902-2.5918c-4.5332,0-8.2061,3.6738-8.2061,8.2061
		c0,0.6436,0.0703,1.2705,0.2129,1.8701c-6.8223-0.3408-12.8691-3.6084-16.918-8.5742c-0.7061,1.2148-1.1113,2.623-1.1113,4.127
		c0,2.8467,1.4492,5.3594,3.6514,6.8301c-1.3447-0.043-2.6104-0.4111-3.7148-1.0254c-0.0029,0.0332-0.0029,0.0684-0.0029,0.1016
		c0,3.9795,2.8311,7.2959,6.5859,8.0488c-0.6895,0.1875-1.416,0.2871-2.166,0.2871c-0.5283,0-1.042-0.0508-1.542-0.1465
		c1.0439,3.2598,4.0762,5.6318,7.667,5.6992c-2.8086,2.2012-6.3486,3.5137-10.1973,3.5137c-0.6592,0-1.3115-0.0391-1.9541-0.1133
		c3.6309,2.3262,7.9463,3.6855,12.583,3.6855c15.0918,0,23.3477-12.5059,23.3477-23.3516c0-0.3555-0.0068-0.709-0.0215-1.0625
		C42.5137,15.6826,43.9023,14.2393,45,12.5947z"/>
</g>
</svg>
