<?xml version="1.0" encoding="utf-8"?>
<svg version="1.1" id="social-icon" xmlns="http://www.w3.org/2000/svg" xmlns:xlink="http://www.w3.org/1999/xlink" width="50px" viewBox="0 0 50 50" preserveAspectRatio="xMidYmin meet">
<g>
	<g>
		<path class="anim-github" d="M25,5C13.6763,5,4.4937,14.1802,4.4937,25.5059c0,9.0605,5.8755,16.7476,14.0239,19.4585
			c1.0244,0.1899,1.4009-0.4448,1.4009-0.9863c0-0.4888-0.019-2.105-0.0283-3.8184c-5.7046,1.2412-6.9087-2.4189-6.9087-2.4189
			c-0.9326-2.3701-2.2764-3.0005-2.2764-3.0005c-1.8608-1.2729,0.1401-1.2466,0.1401-1.2466
			c2.0586,0.1445,3.1436,2.1133,3.1436,2.1133c1.8286,3.1348,4.7969,2.228,5.9673,1.7046c0.1841-1.3252,0.7153-2.2305,1.3018-2.7427
			c-4.5547-0.5181-9.3428-2.2764-9.3428-10.1338c0-2.2393,0.8013-4.0684,2.1128-5.5044c-0.2124-0.5166-0.915-2.6021,0.1982-5.4272
			c0,0,1.7227-0.5508,5.6406,2.1025c1.6362-0.4541,3.3906-0.6821,5.1333-0.6904c1.7427,0.0083,3.4985,0.2363,5.1372,0.6904
			c3.9141-2.6533,5.6333-2.1025,5.6333-2.1025c1.1167,2.8252,0.4141,4.9106,0.2017,5.4272c1.3149,1.436,2.1104,3.2651,2.1104,5.5044
			c0,7.8765-4.7974,9.6104-9.3638,10.1182c0.7354,0.6362,1.3911,1.8843,1.3911,3.7974c0,2.7437-0.0239,4.9521-0.0239,5.6274
			c0,0.5464,0.3691,1.1855,1.4087,0.9839c8.1436-2.7144,14.0117-10.3989,14.0117-19.4561C45.5063,14.1802,36.3252,5,25,5z"/>
		<path class="anim-github"d="M11.7251,34.1968c-0.0479,0.1025,0.0352,0.2407,0.1841,0.3081c0.1455,0.0698,0.3062,0.0391,0.3511-0.063
			c0.0518-0.1021-0.0332-0.2422-0.1821-0.3086C11.9297,34.063,11.769,34.0923,11.7251,34.1968z"/>
		<path class="anim-github"d="M12.6123,34.8477c-0.0991,0.0918-0.0747,0.2832,0.0605,0.4263c0.1289,0.1431,0.3203,0.1855,0.418,0.0947
			c0.1025-0.0918,0.0762-0.2813-0.0576-0.4258C12.8984,34.7998,12.7129,34.7573,12.6123,34.8477z"/>
		<path class="anim-github"d="M13.4443,35.8843c-0.1284,0.0874-0.1284,0.3062-0.0029,0.4888c0.127,0.1821,0.3325,0.2646,0.458,0.1768
			c0.1284-0.0894,0.1284-0.3081,0.0034-0.4932C13.7739,35.876,13.5713,35.7969,13.4443,35.8843z"/>
		<path class="anim-github"d="M14.3633,37.0884c-0.1123,0.1235-0.0625,0.3589,0.1172,0.5239c0.1753,0.1689,0.4146,0.2026,0.5269,0.0786
			c0.1196-0.1226,0.0654-0.3594-0.1123-0.5239C14.7183,36.999,14.4775,36.9644,14.3633,37.0884z"/>
		<path class="anim-github"d="M15.686,38.0981c-0.0464,0.1621,0.105,0.3501,0.3369,0.4204c0.2324,0.0679,0.4629-0.0049,0.5127-0.1655
			c0.0479-0.1631-0.104-0.3496-0.3359-0.4199C15.9658,37.8599,15.7344,37.9365,15.686,38.0981z"/>
		<path class="anim-github" d="M17.332,38.4907c0.0029,0.1665,0.2017,0.3037,0.4468,0.2979c0.2432-0.0029,0.4404-0.1436,0.4351-0.3125
			c0-0.168-0.2002-0.3042-0.4438-0.2993C17.5249,38.1812,17.332,38.3198,17.332,38.4907z"/>
		
			<ellipse transform="matrix(-0.1759 -0.9844 0.9844 -0.1759 -14.9513 64.0588)" class="anim-github" cx="19.3386" cy="38.2878" rx="0.3068" ry="0.4421"/>
	</g>
</g>
</svg>
