<svg xmlns="http://www.w3.org/2000/svg" xmlns:xlink="http://www.w3.org/1999/xlink" viewBox="0 0 150 150"><defs><path id="a" d="M150 145.922c0 2.252-1.826 4.078-4.078 4.078h-141.845c-2.252 0-4.078-1.826-4.078-4.078v-141.845c0-2.252 1.826-4.078 4.078-4.078h141.845c2.252 0 4.078 1.826 4.078 4.078v141.845z"/></defs><clipPath id="b"><use xlink:href="#a" overflow="visible"/></clipPath><path clip-path="url(#b)" fill="#B05AE2" d="M.14-.703h150.865v76.296h-150.865z"/><path clip-path="url(#b)" fill="#F1F1F3" d="M.14 75.41h150.865v74.002h-150.865z"/><path fill="#B05AE2" d="M145.922 1c1.697 0 3.078 1.381 3.078 3.078v141.845c0 1.697-1.381 3.078-3.078 3.078h-141.845c-1.697 0-3.078-1.381-3.078-3.077v-141.845c0-1.697 1.381-3.078 3.078-3.078h141.845m0-1h-141.845c-2.252 0-4.078 1.826-4.078 4.078v141.845c0 2.252 1.826 4.078 4.078 4.078h141.845c2.252 0 4.078-1.826 4.078-4.078v-141.845c0-2.252-1.826-4.078-4.077-4.078z" clip-path="url(#b)"/></svg>