<?xml version="1.0" encoding="utf-8"?>
<!-- Generator: Adobe Illustrator 16.0.0, SVG Export Plug-In . SVG Version: 6.00 Build 0)  -->
<!DOCTYPE svg PUBLIC "-//W3C//DTD SVG 1.1//EN" "http://www.w3.org/Graphics/SVG/1.1/DTD/svg11.dtd">
<svg version="1.1" id="Layer_1" xmlns="http://www.w3.org/2000/svg" xmlns:xlink="http://www.w3.org/1999/xlink" x="0px" y="0px"
	 width="40px" height="40px" viewBox="0 0 40 40" enable-background="new 0 0 40 40" xml:space="preserve">
<rect fill="#B05AE2" width="40" height="40"/>
<path fill="#F1F1F3" d="M30.5342,19.5933c-0.0854-0.1689-0.2578-0.2754-0.4463-0.2754h-9.4717l2.395-11.3975
	c0.0488-0.2319-0.0718-0.4668-0.29-0.561c-0.2188-0.0947-0.4727-0.0229-0.6084,0.1719l-12.6089,18
	c-0.1069,0.1523-0.1201,0.3525-0.0337,0.5176c0.0859,0.1655,0.2568,0.269,0.4429,0.269h9.4595l-2.3813,10.3882
	c-0.0532,0.2305,0.063,0.4673,0.2778,0.5659c0.0674,0.0313,0.1387,0.0459,0.209,0.0459c0.1548,0,0.3052-0.0713,0.4019-0.2017
	l12.6094-17.0005C30.6016,19.9634,30.6191,19.7622,30.5342,19.5933z"/>
</svg>
