<?xml version="1.0" encoding="utf-8"?>
<!-- Generator: Adobe Illustrator 16.0.0, SVG Export Plug-In . SVG Version: 6.00 Build 0)  -->
<!DOCTYPE svg PUBLIC "-//W3C//DTD SVG 1.1//EN" "http://www.w3.org/Graphics/SVG/1.1/DTD/svg11.dtd">
<svg version="1.1" id="Layer_1" xmlns="http://www.w3.org/2000/svg" xmlns:xlink="http://www.w3.org/1999/xlink" x="0px" y="0px"
	 width="40px" height="40px" viewBox="0 0 40 40" enable-background="new 0 0 40 40" xml:space="preserve">
<rect fill="#B05AE2" width="40" height="40"/>
<g>
	<path fill="#F1F1F3" stroke="#F1F1F3" stroke-width="0.5416" stroke-miterlimit="10" d="M24.2881,10.418
		c-0.6187-0.2583-1.3276,0.0352-1.5854,0.6519c-0.2568,0.6172,0.0337,1.3276,0.6519,1.5845
		c3.2607,1.3608,5.3677,4.5225,5.3677,8.0537c0,4.8081-3.9126,8.7217-8.7212,8.7217s-8.7222-3.9136-8.7222-8.7217
		c0-3.5132,2.0923-6.668,5.3267-8.0366c0.6167-0.2607,0.9058-0.9717,0.644-1.5874c-0.2598-0.6177-0.9717-0.9048-1.5874-0.6445
		c-4.1348,1.7485-6.8066,5.7793-6.8066,10.2686c0,6.146,4.999,11.1455,11.1455,11.1455c6.1455,0,11.1445-4.9995,11.1445-11.1455
		C31.1455,16.1948,28.4546,12.1553,24.2881,10.418z"/>
	<path fill="#F1F1F3" stroke="#F1F1F3" stroke-width="0.5416" stroke-miterlimit="10" d="M19.9502,19.6279
		c0.6685,0,1.2114-0.5425,1.2114-1.2119V8.4824c0-0.6685-0.543-1.2119-1.2114-1.2119c-0.6694,0-1.2119,0.5435-1.2119,1.2119v9.9336
		C18.7383,19.0854,19.2808,19.6279,19.9502,19.6279z"/>
</g>
</svg>
