<?xml version="1.0" encoding="utf-8"?>
<svg version="1.1" id="Layer_1" xmlns="http://www.w3.org/2000/svg" xmlns:xlink="http://www.w3.org/1999/xlink" x="0px" y="0px"
	 width="40px" height="40px" viewBox="0 0 40 40" enable-background="new 0 0 40 40" xml:space="preserve">
<rect fill="#B05AE2" width="40" height="40"/>
<g>
	<path fill="#F1F1F3" d="M17,23.3408V28.5c0,0.2764,0.2236,0.5,0.5,0.5h4c0.2764,0,0.5-0.2236,0.5-0.5v-5.1592
		c3.5-1.5,3.5-5.605,3.5-7.8408c0-0.2759-0.2236-0.5-0.5-0.5H14c-0.2764,0-0.5,0.2241-0.5,0.5C13.5,17.7363,13.5,21.8408,17,23.3408
		z"/>
	<path fill="#F1F1F3" d="M19.5,14c2.4814,0,4.5-2.0186,4.5-4.5S21.9814,5,19.5,5S15,7.0186,15,9.5S17.0186,14,19.5,14z"/>
	<path fill="#F1F1F3" d="M24.5752,24.251c-0.2754-0.0322-0.5215,0.1665-0.5527,0.4404c-0.0313,0.2749,0.166,0.5225,0.4404,0.5532
		C29.9893,25.8691,34,27.6592,34,29.5c0,2.6519-7.3779,4.5-14,4.5S6,32.1519,6,29.5c0-1.8418,4.0117-3.6313,9.54-4.2554
		c0.2744-0.0313,0.4717-0.2788,0.4414-0.5532c-0.0322-0.2739-0.2783-0.4722-0.5537-0.4404C9.0938,24.9658,5,27.0264,5,29.5
		c0,3.4429,7.627,5.5,15,5.5s15-2.0571,15-5.5C35,27.0269,30.9082,24.9668,24.5752,24.251z"/>
	<path fill="#F1F1F3" d="M20,31c-5.5,0-8.5-1.3213-8.5-2c0-0.3926,1.1074-1.1934,4.0781-1.6714
		c0.2725-0.0439,0.458-0.2998,0.4141-0.5732c-0.0439-0.2725-0.3037-0.458-0.5732-0.4141C13.582,26.6367,10.5,27.375,10.5,29
		c0,1.9692,4.7793,3,9.5,3s9.5-1.0308,9.5-3c0-1.6191-3.0625-2.3579-4.8867-2.6538c-0.2783-0.0449-0.5303,0.1411-0.5742,0.4131
		c-0.0439,0.2729,0.1406,0.5298,0.4131,0.5732C27.4014,27.8115,28.5,28.6094,28.5,29C28.5,29.6787,25.5,31,20,31z"/>
</g>
</svg>
