<svg xmlns="http://www.w3.org/2000/svg" width="512" height="512" viewBox="0 0 512 512"><g fill="#ccc"><path d="M249.328 10.332c.479.417.923.908 1.367 1.361.39.454.816.89 1.242 1.271 7.879 7.208 16.273 11.167 23.584 11.167 7.24 0 13.362-3.668 18.189-10.895 2.626-3.904 4.702-8.57 5.98-13.237h-.249c-1.277 4.63-3.336 9.224-5.909 13.11-4.81 7.136-10.86 10.785-18.012 10.785-7.258 0-15.581-3.958-23.442-11.094-.408-.381-.799-.817-1.225-1.271-.444-.472-.905-.944-1.367-1.398-3.531-3.159-7.329-6.064-11.002-8.879-.55-.418-1.082-.817-1.633-1.253h-.391c.621.491 1.26.963 1.899 1.453 3.673 2.815 7.453 5.72 10.967 8.879zM15.545 33.736c5.111-4.866 10.399-9.914 13.789-17.123 1.704-3.667 3.389-9.459 4.17-16.614h-.248c-.763 7.118-2.449 12.874-4.135 16.523-3.354 7.136-8.624 12.165-13.735 17.032-5.945 5.665-12.085 11.493-15.119 20.717-.107.273-.195.545-.267.835v.817c.142-.545.32-1.072.479-1.562 3.034-9.169 9.157-14.998 15.066-20.627zM273.781 12.91c2.502 0 4.934-.889 7.17-2.632 2.094-1.616 3.123-3.269 4.205-4.975.443-.727.923-1.471 1.473-2.234.426-.998.781-2.033 1.083-3.068h-.249c-.301.999-.639 1.98-1.029 2.924-.567.762-1.029 1.507-1.473 2.251-1.065 1.706-2.094 3.305-4.135 4.903-2.236 1.725-4.578 2.596-7.045 2.596-6.584 0-12.9-5.992-18.473-11.257l-1.491-1.417h-.355l1.669 1.58c5.607 5.32 11.978 11.33 18.65 11.33zM4.313 76.243c1.189-6.282 2.289-12.22 3.993-16.415 2.875-7.154 8.855-13.164 15.173-19.537 3.904-3.904 7.915-7.935 11.304-12.383 4.241-5.539 7.081-10.332 9.459-15.997 1.402-3.341 2.609-7.19 3.78-10.913.106-.327.231-.671.319-.998h-.248c-.089.309-.195.618-.302.926-1.153 3.722-2.36 7.571-3.762 10.895-2.378 5.647-5.2 10.422-9.441 15.942-3.389 4.413-7.4 8.461-11.269 12.347-6.353 6.41-12.351 12.438-15.243 19.628-1.704 4.212-2.822 10.168-3.993 16.469-1.136 6.064-2.307 12.347-4.046 16.922l-.036.109v.636c.071-.236.178-.435.267-.654 1.757-4.612 2.928-10.894 4.046-16.977zM23.691 154.537c8.252 3.377 18.509 7.554 22.431 16.105.266 4.667-1.331 8.643-3.035 12.837-2.396 5.883-5.111 12.547-3.584 22.969 1.171 7.917 5.714 13.001 10.984 18.883 2.183 2.433 4.401 4.939 6.53 7.79 5.555 7.481 9.352 15.924 12.298 23.205 2.964 7.245 5.289 12.964 13.061 14.871 4.649 1.145 11.144 1.943 15.599 2.416 2.466.272 4.756.418 6.814.418 3.425 0 6.371-.382 8.855-1.127 5.271-1.598 8.624-5.992 12.848-11.548 1.26-1.652 2.556-3.341 4.028-5.139.994-1.234 2.307-2.578 3.709-4.031 2.91-2.996 5.909-6.101 6.743-8.588.302-.962.213-1.834.142-2.833-.071-.763-.142-1.598-.053-2.597l.018-.054-.035-.037c-2.822-3.813-6.247-6.863-9.565-9.841-5.625-5.047-10.967-9.805-12.972-17.63-1.065-4.122-.674-8.534 1.171-13.491 1.97-5.229 6.548-10.985 12.937-16.179 2.874-2.342 5.927-4.775 9.157-7.372 14.817-11.82 31.623-25.221 40.797-36.896l.018-.072c.302-1.434.195-3.068-.213-4.866-1.189-4.902-4.933-10.731-10.293-15.997-5.111-4.993-10.914-8.734-15.545-10.04-.373-.109-1.1-.309-1.881-.472-6.175-1.417-12.582-.436-18.757.508-5.341.817-10.416 1.598-15.332.944-10.63-1.435-18.278-8.716-20.976-19.973-3.549-14.78 6.264-24.059 15.758-33.046 6.992-6.646 14.249-13.491 16.148-22.533 1.81-8.516-.55-17.704-2.112-23.786-.621-2.451-1.384-4.902-2.2-7.336h-.248c.834 2.452 1.579 4.92 2.218 7.408 1.544 6.047 3.904 15.198 2.112 23.659-1.881 8.97-9.104 15.797-16.096 22.406-9.529 9.024-19.396 18.357-15.812 33.283 2.715 11.348 10.47 18.702 21.189 20.136 4.934.654 10.009-.109 15.386-.926 6.158-.944 12.528-1.906 18.669-.508.763.163 1.508.363 1.881.472 9.192 2.579 23.105 15.289 25.643 25.838.444 1.779.515 3.377.248 4.757-9.174 11.657-25.944 25.057-40.744 36.859-3.248 2.579-6.3 5.011-9.174 7.354-6.406 5.229-11.021 11.003-12.99 16.306-1.863 4.993-2.253 9.441-1.189 13.618 2.041 7.898 7.382 12.71 13.043 17.776 3.3 2.941 6.69 5.992 9.512 9.75-.089.999-.018 1.834.035 2.597.106.981.178 1.816-.124 2.724-.816 2.433-3.78 5.538-6.69 8.516-1.384 1.435-2.715 2.796-3.708 4.031-1.473 1.779-2.786 3.485-4.046 5.156-4.206 5.519-7.524 9.878-12.724 11.457-3.957 1.199-9.05 1.435-15.563.709-4.472-.491-10.949-1.29-15.581-2.416-7.648-1.852-9.973-7.534-12.901-14.725-2.963-7.299-6.743-15.761-12.315-23.278-2.129-2.851-4.365-5.356-6.53-7.79-5.253-5.847-9.778-10.913-10.932-18.756-1.526-10.35 1.171-16.977 3.549-22.842 1.704-4.231 3.336-8.226 3.07-12.964l-.018-.055c-3.975-8.624-14.285-12.855-22.573-16.214-2.253-.926-4.578-1.87-7.116-2.433-5.857-1.289-11.428-1.998-16.664-2.215v.254c5.217.182 10.772.926 16.61 2.197 2.52.544 4.844 1.489 7.081 2.396zM144.06 7.064c.639 2.505 1.384 5.012 2.112 7.462 1.562 5.393 3.035 10.495 3.62 15.053.444 3.25.444 6.609.018 8.952-1.224 7.045-5.856 12.528-10.328 17.848-5.128 6.083-10.434 12.402-10.842 21.172.55 7.807 9.157 8.952 18.26 10.131 1.668.236 3.407.454 5.075.727 6.672 1.089 14.356 3.269 22.218 6.283 2.751 1.071 5.394 2.397 7.968 3.686 4.898 2.487 9.529 4.848 14.942 5.466.692.072 1.384.109 2.112.109 3.673 0 6.868-1.053 9.601-2.052 2.768-.999 5.146-2.07 7.453-3.141 4.951-2.233 9.618-4.34 16.823-4.993 1.278-.145 2.591-.2 3.886-.2 7.826 0 14.374 2.106 20.727 4.141 5.467 1.779 10.666 3.431 16.043 3.431 1.065 0 2.129-.055 3.141-.199 8.163-1.053 14.445-5.375 19.166-13.237 4.17-6.936 6.565-15.706 8.57-24.149.586-2.47 1.615-7.099 1.971-10.459.354-3.16-.125-5.465-1.491-7.063-2.466-2.924-7.417-3.105-13.149-3.287-2.609-.09-5.288-.181-7.968-.544-11.286-1.489-20.745-2.978-31.215-7.463-8.624-3.667-17.249-8.261-22.981-11.439-9.618-5.393-20.514-12.056-28.198-23.296h-.284c7.72 11.349 18.669 18.103 28.375 23.514 5.714 3.195 14.339 7.771 22.981 11.457 10.488 4.467 19.981 5.974 31.285 7.481 2.68.345 5.377.435 7.986.544 5.678.182 10.594.345 13.008 3.196 1.295 1.544 1.773 3.794 1.42 6.882-.373 3.341-1.385 7.953-1.971 10.422-3.975 16.795-9.69 34.916-27.541 37.204-1.012.127-2.059.182-3.106.182-5.342 0-10.506-1.653-15.989-3.414-6.353-2.034-12.919-4.14-20.78-4.14-1.295 0-2.608.054-3.904.181-7.24.654-11.925 2.796-16.894 5.048-2.307 1.035-4.685 2.124-7.436 3.123-2.715.981-5.909 2.016-9.529 2.016-.71 0-1.402-.037-2.076-.109-5.359-.6-9.973-2.942-14.871-5.411-2.573-1.307-5.217-2.651-7.985-3.704-7.879-3.032-15.581-5.211-22.253-6.301-1.685-.273-3.425-.508-5.093-.708-8.997-1.198-17.515-2.324-18.065-9.932.408-8.643 5.696-14.925 10.79-21.008 4.507-5.32 9.139-10.858 10.399-17.939.426-2.378.391-5.756-.018-9.043-.604-4.594-2.094-9.678-3.656-15.07-.71-2.451-1.438-4.993-2.112-7.481-.426-1.616-.87-3.269-1.331-4.866-.195-.69-.373-1.417-.585-2.125h-.248c.213.745.426 1.471.604 2.197.462 1.598.905 3.232 1.349 4.866zM16.539 16.142c2.413-3.832 4.579-8.443 4.614-16.142h-.231c-.053 7.627-2.183 12.22-4.578 16.015-3.052 4.812-7.454 7.699-12.138 10.768-1.402.926-2.822 1.852-4.206 2.851v.29c1.42-1.017 2.893-1.979 4.33-2.923 4.685-3.087 9.122-5.992 12.209-10.858zM159.606 21.771c1.438 3.304 2.946 6.682 3.442 10.222 1.402 9.696-3.496 15.997-8.216 22.116-3.247 4.158-6.282 8.08-7.222 12.91-.248 1.217-.178 1.961-.124 2.924.036.508.071 1.053.071 1.797v.036c1.206 3.432 4.809 5.847 7.63 7.263 10.186 5.157 26.778 7.589 38.881 9.369 1.828.254 3.638.399 5.519.399 4.703 0 9.068-.817 13.682-1.67 4.933-.908 10.044-1.871 15.935-1.871 1.562 0 3.159.073 4.703.2.319.036 1.206.091 2.342.163 1.669.091 3.762.2 5.235.327 4.933.382 8.837 1.271 12.599 2.143 5.04 1.144 9.76 2.233 16.77 2.233.728 0 1.49-.018 2.254-.036 5.572-.89 10.683-6.9 12.723-14.961 1.687-6.664 1.296-15.524-4.844-20.427-7.223-5.755-28.269-10.804-39.573-11.729-2.413-.218-4.418-.236-6.353-.236-2.165-.018-4.383-.036-7.293-.29-7.79-.727-14.232-3.868-21.561-10.513-9.068-8.244-13.983-14.617-21.011-27.236-.763-1.362-1.473-3.032-2.129-4.903h-.267c.692 1.906 1.402 3.632 2.201 5.012 7.027 12.655 11.943 19.029 21.064 27.308 7.347 6.683 13.842 9.841 21.686 10.568 2.91.273 5.146.29 7.311.29 2.023.018 3.922.036 6.335.236 11.269.944 32.244 5.956 39.466 11.693 6.034 4.812 6.389 13.582 4.738 20.173-2.005 7.953-7.063 13.89-12.527 14.78-.746.018-1.491.036-2.219.036-6.957 0-11.713-1.107-16.717-2.233-3.78-.872-7.684-1.761-12.635-2.143-1.473-.109-3.567-.254-5.235-.345-1.136-.054-2.023-.109-2.343-.127-1.562-.163-3.141-.218-4.72-.218-5.909 0-11.038.944-15.971 1.87-4.614.854-8.961 1.653-13.646 1.653-1.881 0-3.673-.109-5.483-.382-12.085-1.779-28.659-4.194-38.81-9.351-2.768-1.38-6.317-3.759-7.489-7.118-.018-.727-.053-1.271-.071-1.78-.089-.944-.142-1.67.106-2.869.94-4.739 3.958-8.661 7.169-12.801 4.773-6.137 9.689-12.492 8.27-22.297-.515-3.56-2.005-6.991-3.46-10.278-.568-1.289-1.171-2.633-1.686-3.976-1.863-4.739-4.046-11.112-5.43-17.704h-.231c1.402 6.628 3.584 13.055 5.448 17.813.515 1.325 1.1 2.669 1.686 3.959zM24.596 119.693c3.283-3.74 6.193-7.735 9.281-11.947 4.897-6.682 9.955-13.582 16.486-19.283.461-.436.922-.908 1.349-1.38.39-.436.816-.872 1.242-1.271 4.259-3.85 9.139-6.936 13.841-9.896 3.266-2.07 6.655-4.195 9.832-6.591 2.519-1.906 5.057-3.904 7.488-5.828 3.709-2.942 7.542-5.956 11.411-8.679 1.828-1.29 3.727-2.524 5.75-3.832 9.867-6.446 21.047-13.745 22.75-26.945.905-6.973-.888-15.96-4.703-24.041h-.248c3.815 8.062 5.607 17.05 4.72 24.023-1.704 13.091-12.83 20.354-22.661 26.746-2.005 1.307-3.904 2.561-5.732 3.832-3.886 2.741-7.72 5.774-11.411 8.697-2.449 1.925-4.969 3.922-7.524 5.829-3.159 2.378-6.531 4.521-9.796 6.573-4.72 2.996-9.601 6.082-13.859 9.932-.461.4-.87.872-1.278 1.29-.426.454-.852.944-1.331 1.343-6.548 5.72-11.623 12.638-16.504 19.319-3.087 4.231-6.016 8.207-9.281 11.93-6.495 7.408-15.084 12.42-24.418 14.416v.254c9.405-2.033 18.065-7.063 24.596-14.49zM10.044 110.288c3.176-4.739 3.194-13.346 2.857-20.318-.266-5.629-.177-16.378 3.425-25.311 2.786-6.827 9.388-12.91 15.776-18.757.976-.908 1.935-1.798 2.875-2.688 12.794-11.929 19.147-22.66 24.737-35.062.479-1.053.888-2.179 1.296-3.268.497-1.362 1.029-2.742 1.685-4.085.125-.273.266-.545.391-.799h-.266c-.106.236-.231.454-.355.672-.657 1.362-1.171 2.76-1.669 4.122-.408 1.089-.816 2.197-1.313 3.249-5.572 12.402-11.89 23.097-24.666 35.008-.94.89-1.917 1.761-2.875 2.651-6.406 5.883-13.043 11.966-15.829 18.865-3.62 8.97-3.709 19.773-3.443 25.402.337 6.954.302 15.506-2.821 20.191-2.271 3.359-5.891 5.756-9.849 7.808v.273c4.028-2.088 7.72-4.503 10.044-7.953zM3.532 6.664c1.544-1.634 2.2-4.176 2.2-6.664h-.266c0 2.452-.657 4.957-2.094 6.5-1.012 1.072-2.165 1.652-3.372 1.652v-.018.254c1.26 0 2.484-.599 3.532-1.725zM76.431 3.85c-3.372 4.067-5.838 9.623-8.216 14.998-.373.817-.728 1.616-1.083 2.433-3.478 7.663-7.79 17.213-12.511 23.731-2.555 3.559-6.779 6.119-11.251 8.824-6.335 3.832-12.883 7.808-15.438 15.107-.923 2.633-.94 5.52-.036 9.133.887 2.016 2.431 3.033 4.561 3.033 3.514 0 7.667-2.778 9.37-4.267 3.39-2.923 6.371-6.973 9.228-10.912 1.544-2.088 3.123-4.285 4.756-6.283.798-.926 3.531-4.122 5.821-5.502 5.43-3.269 12.386-5.774 19.751-8.425 10.239-3.668 20.798-7.462 27.381-13.636 3.514-3.232 5.59-8.316 5.768-13.908.16-5.992-1.863-11.675-5.75-16.033-.692-.763-1.438-1.507-2.236-2.143h-.39c.852.69 1.685 1.471 2.449 2.324 3.833 4.285 5.856 9.914 5.679 15.834-.142 5.519-2.218 10.549-5.661 13.745-6.566 6.119-17.125 9.914-27.311 13.581-7.382 2.651-14.338 5.157-19.786 8.443-2.36 1.435-5.093 4.63-5.874 5.574-1.668 1.98-3.248 4.176-4.792 6.301-2.857 3.904-5.803 7.935-9.174 10.84-1.686 1.471-5.785 4.231-9.228 4.231-2.041 0-3.496-.962-4.348-2.887-.87-3.522-.852-6.373.053-8.97 2.52-7.208 9.033-11.149 15.332-14.962 4.49-2.723 8.731-5.302 11.339-8.915 4.703-6.518 9.015-16.087 12.511-23.75.355-.817.71-1.634 1.083-2.452 2.378-5.356 4.845-10.876 8.199-14.925 1.26-1.543 2.732-2.869 4.348-4.013h-.408c-1.526 1.107-2.928 2.397-4.135 3.85zM170.27 65.965l.018.037c.426.454.674 1.09.905 1.706l.053.127.036.072c1.739 1.652 4.33 2.579 7.311 2.579 4.241 0 8.447-1.834 10.505-4.54 1.242-1.652 1.633-3.522 1.171-5.447-.905-3.595-4.259-4.775-7.915-5.738l-.018-.019-.018.019c-6.211.926-12.635 4.812-12.049 11.167v.036zm12.049-10.967c3.584.962 6.832 2.088 7.719 5.556.444 1.852.071 3.668-1.135 5.248-2.005 2.651-6.158 4.449-10.31 4.449-2.91 0-5.448-.908-7.134-2.524l-.036-.091c-.248-.636-.497-1.289-.922-1.78-.603-7.063 7.453-10.186 11.818-10.858zM234.564 70.142l.088.164.036.018c3.815 2.451 10.133 4.085 15.705 4.085 3.673 0 10.08-.744 11.748-5.811v-.018c.035-1.761-.586-3.323-1.881-4.667-2.414-2.542-7.223-4.104-12.529-4.104-6.726 0-13.983 2.651-14.09 8.534v.036l.053.037c.408.453.657 1.107.87 1.724zm13.167-10.095c5.235 0 9.991 1.562 12.369 4.031 1.225 1.307 1.828 2.796 1.81 4.466-1.633 4.903-7.933 5.629-11.518 5.629-5.519 0-11.748-1.616-15.563-4.031l-.036-.109c-.248-.617-.479-1.271-.905-1.743.124-5.665 7.258-8.243 13.841-8.243zM65.553 186.095c-1.349 5.901-2.751 12.038-2.183 21.189 4.49 15.924 9.796 27.944 16.166 36.787 1.491 2.051 3.318 4.394 5.625 6.282 3.301 2.706 8.003 4.304 12.528 4.304 4.561 0 8.465-1.598 10.985-4.558 2.804-3.251 3.833-7.935 3.07-13.909-.444-3.341-1.633-6.863-2.804-10.277-1.171-3.395-2.378-6.899-2.804-10.24-1.721-12.983 3.709-26.437 14.463-35.97 4.561-4.067 9.281-7.354 13.806-10.531 4.915-3.468 9.991-7.045 14.8-11.512 7.311-6.773 15.581-14.472 16.947-26.074v-.05399999999999999c-.869-5.484-2.538-11.13-8.642-15.162-3.46-2.306-7.293-3.377-12.049-3.377-4.064 0-8.234.781-12.67 1.598-4.773.871-9.707 1.779-14.835 1.779-1.26 0-2.502-.054-3.691-.145-2.431-.236-5.502-.999-8.713-1.816-4.33-1.071-8.819-2.197-12.369-2.197-.746 0-1.42.055-2.041.164-4.791.744-9.866 4.993-13.753 8.606-6.477 6.01-12.582 12.274-13.593 17.431-.39 2.016-.266 5.248-.018 7.59.355 3.559 1.118 6.573 1.828 9.478 1.26 5.193 2.573 10.567 1.935 19.156-.319 4.176-1.118 7.735-1.988 11.457zm.284-30.668c-.71-2.905-1.455-5.919-1.81-9.442-.248-2.342-.373-5.538 0-7.517.994-5.102 7.081-11.33 13.522-17.322 3.869-3.577 8.909-7.79 13.629-8.552.604-.091 1.26-.127 2.005-.127 3.531 0 8.003 1.107 12.315 2.197 3.23.799 6.3 1.562 8.731 1.797 1.206.109 2.449.164 3.727.164 5.146 0 10.097-.908 14.871-1.815 4.436-.799 8.606-1.58 12.635-1.58 4.703 0 8.501 1.071 11.943 3.341 6.016 3.995 7.648 9.551 8.518 15.016-1.366 11.494-9.582 19.138-16.858 25.911-4.827 4.449-9.884 8.007-14.782 11.457-4.561 3.195-9.246 6.5-13.842 10.586-10.825 9.569-16.273 23.096-14.551 36.169.443 3.359 1.65 6.863 2.821 10.277 1.171 3.395 2.378 6.918 2.786 10.24.781 5.901-.248 10.513-3.017 13.727-2.467 2.887-6.282 4.467-10.79 4.467-4.472 0-9.104-1.598-12.387-4.249-2.271-1.87-4.099-4.212-5.572-6.246-6.371-8.806-11.641-20.808-16.131-36.696-.568-9.079.834-15.198 2.2-21.063.87-3.758 1.669-7.317 1.97-11.512.639-8.625-.656-14.018-1.934-19.228zM80.388 185.477c.248 1.071.408 2.161.604 3.359.639 4.176 1.402 8.952 5.59 11.203l.036.019h.036c5.093-.363 8.305-5.012 11.712-9.914 1.225-1.743 2.467-3.559 3.815-5.139 7.506-8.879 15.971-14.762 24.152-20.463 5.75-4.013 11.198-7.808 16.007-12.401 1.544-.781 2.591-2.143 3.584-3.451.763-.98 1.544-2.033 2.573-2.832 4.401-5.629 5.856-12.22 3.709-16.759-1.349-2.869-4.721-6.3-13.132-6.3-1.136 0-2.325.072-3.549.181-2.697.273-5.803.854-9.05 1.471-3.62.672-7.719 1.435-11.854 1.889-.87.091-1.686.163-2.502.273-11.038 1.125-17.692 1.852-24.329 9.841-4.721 5.72-7.241 12.783-7.95 22.261-.426 6.064-.089 12.71.213 18.557.16 2.941.302 5.72.337 8.207zm-.301-26.746c.692-9.424 3.212-16.432 7.879-22.097 6.566-7.971 12.813-8.607 24.17-9.805.816-.073 1.632-.164 2.502-.254 4.152-.454 8.252-1.217 11.872-1.888 3.247-.6 6.335-1.198 9.032-1.453 1.225-.127 2.414-.2 3.532-.2 8.287 0 11.605 3.359 12.937 6.174 2.076 4.467.657 10.949-3.673 16.469-1.029.817-1.828 1.852-2.609 2.851-1.029 1.38-1.987 2.651-3.496 3.396l-.036.018c-4.809 4.612-10.257 8.407-16.007 12.401-8.198 5.72-16.645 11.603-24.187 20.518-1.349 1.562-2.591 3.377-3.815 5.138-3.372 4.848-6.548 9.442-11.517 9.805-4.082-2.197-4.773-6.682-5.448-11.003-.195-1.198-.355-2.306-.586-3.359-.035-2.469-.195-5.229-.337-8.17-.302-5.847-.657-12.492-.213-18.539zM233.853 156.516c1.81 17.25 3.514 33.555 16.663 45.212 8.837 7.826 23.123 16.16 36.805 16.16 8.341 0 15.19-3.16 20.372-9.406 4.473-5.429 6.779-11.766 9.424-19.12.283-.817.585-1.634.887-2.488.532-1.416 1.047-2.814 1.562-4.194 2.946-7.953 5.731-15.434 6.424-21.661 1.544-13.71-3.318-19.229-9.334-24.567-9.37-8.298-21.561-8.915-34.48-9.587-3.053-.163-6.673-.49-10.488-.853-6.016-.563-12.813-1.181-18.509-1.181-6.14 0-10.168.709-12.351 2.197-9.157 6.21-8.057 21.299-7.187 27.472l.213 2.015zm7.098-29.269c2.147-1.471 6.14-2.179 12.227-2.179 5.679 0 12.493.635 18.491 1.198 3.814.346 7.436.691 10.487.835 12.884.654 25.04 1.29 34.339 9.533 5.979 5.283 10.789 10.767 9.263 24.367-.692 6.174-3.478 13.654-6.406 21.589-.515 1.398-1.047 2.796-1.544 4.213-.319.817-.621 1.652-.904 2.487-2.644 7.317-4.934 13.636-9.406 19.047-5.11 6.192-11.889 9.334-20.177 9.334-13.593 0-27.86-8.335-36.645-16.143-13.096-11.566-14.782-27.835-16.574-45.03l-.231-2.033c-.887-6.137-1.952-21.099 7.081-27.218zM246.417 159.349c1.58 14.889 2.928 27.744 14.711 37.277 5.465 4.448 15.35 9.641 25.128 9.641 4.862 0 8.962-1.289 12.209-3.849 9.192-7.281 13.185-22.424 13.823-33.173.729-12.42-3.727-23.332-11.906-29.143-7.507-5.356-17.055-5.901-27.188-6.464-2.218-.109-4.418-.236-6.619-.236-6.353 0-14.196.817-18.206 7.154-2.307 4.811-2.165 10.458-2.005 15.905l.053 2.887zm2.165-18.684c3.939-6.21 11.695-7.027 17.994-7.027 2.201 0 4.384.109 6.619.254 10.063.563 19.592 1.071 27.063 6.391 8.092 5.774 12.512 16.614 11.783 28.943-.621 10.712-4.596 25.783-13.734 33.01-3.195 2.523-7.24 3.813-12.05 3.813-9.707 0-19.538-5.193-25.004-9.623-11.677-9.478-12.972-21.68-14.587-37.095-.018-.944-.036-1.888-.089-2.869-.124-5.429-.266-11.039 2.005-15.796zM101.665 156.97l.053.037c.355.235.657.581.959.908.373.399.745.817 1.206 1.053l.018.018h.053c6.726-1.216 14.374-4.793 19.964-9.315 2.218-1.797 4.809-4.248 5.324-7.317l.018-.054-.036-.055c-.302-.454-.728-.854-1.1-1.253-.302-.29-.586-.563-.852-.872l-.018-.055h-.053c-.994-.109-2.076-.163-3.159-.163-5.856 0-13.842 1.816-18.633 6.881-2.626 2.815-3.886 6.21-3.744 10.132v.055zm3.922-10.023c4.72-5.03 12.635-6.809 18.456-6.809 1.065 0 2.112.054 3.088.163.266.309.55.599.816.872.391.363.763.744 1.047 1.18-.515 2.978-3.052 5.375-5.217 7.118-5.555 4.503-13.15 8.062-19.822 9.278-.408-.236-.745-.599-1.083-.981-.302-.327-.603-.653-.958-.926-.125-3.814 1.082-7.136 3.673-9.896zM271.049 189.853c3.939 2.615 8.34 4.031 12.422 4.031 5.377 0 9.885-2.378 13.096-6.9 7.453-10.513 4.082-30.395-6.602-38.656-2.893-2.27-7.843-4.957-14.924-4.957-1.668 0-3.371.145-5.093.454-7.471 1.289-11.356 7.335-11.233 17.449.107 7.681 1.863 21.625 12.334 28.58zm-1.064-45.793c1.721-.291 3.406-.436 5.057-.436 7.01 0 11.908 2.651 14.801 4.884 5.039 3.922 8.678 10.622 9.973 18.43 1.277 7.627-.018 15.052-3.461 19.919-3.141 4.449-7.612 6.773-12.883 6.773-4.028 0-8.412-1.398-12.298-3.977-10.364-6.881-12.102-20.736-12.209-28.38-.142-9.986 3.69-15.942 11.021-17.213zM29.866 257.634c.976 1.816 1.917 3.56 3.035 4.994l.053.054c1.544 2.053 4.17 5.466 7.826 4.902 3.939-.599 9.139-5.392 8.199-12.438-.746-5.628-4.436-9.75-11.623-12.964-.461-.2-.923-.418-1.402-.618-3.46-1.489-6.744-2.905-8.252-6.283-1.562-6.682-1.863-15.688-2.2-25.256-.266-7.917-.55-16.124-1.597-23.114-2.005-13.491-8.748-21.517-20.621-24.585-1.029-.272-2.129-.526-3.283-.69v.254c1.136.164 2.218.4 3.23.672 11.765 3.014 18.456 11.003 20.443 24.385 1.029 6.991 1.313 15.18 1.597 23.096.319 9.569.639 18.593 2.201 25.329 1.562 3.486 4.88 4.903 8.394 6.41.479.218.94.4 1.402.618 7.099 3.159 10.736 7.227 11.464 12.783.923 6.881-4.135 11.565-7.985 12.147-3.514.546-6.087-2.796-7.613-4.775l-.053-.055c-1.1-1.452-2.041-3.159-3.017-4.975-3.07-5.683-6.247-11.566-15.332-10.023-4.294.708-9.121 3.05-14.729 7.099v.309c5.644-4.104 10.47-6.464 14.765-7.172 8.926-1.507 12.067 4.303 15.102 9.896zM5.892 225.423c5.253-5.919 8.057-14.671 7.702-24.04-.355-9.024-3.655-17.268-8.837-22.08-1.544-1.126-3.159-1.889-4.756-2.288v.236c1.562.418 3.123 1.162 4.596 2.215 5.146 4.794 8.412 12.983 8.767 21.916.355 9.296-2.431 18.012-7.631 23.895-1.739 1.943-3.691 3.577-5.732 5.029v.291c2.112-1.471 4.117-3.141 5.892-5.175zM219.107 227.003c-.231-1.616-.959-3.559-1.562-5.103-5.004-12.746-16.752-26.11-25.288-33.664-5.856-5.175-10.718-8.207-14.445-8.97-.798-.181-1.668-.273-2.573-.273-10.186 0-22.697 10.604-23.477 19.901.036.454.142.926.266 1.361.142.69.319 1.38.248 2.124v.037l.018.018c3.62 8.715 7.755 16.941 12.245 24.476 2.023 3.414 4.064 6.682 6.744 9.423 6.477 6.628 17.763 11.276 27.381 11.276 5.324 0 9.778-1.38 13.238-4.049 5.785-4.485 8.216-10.059 7.205-16.56zm-20.443 20.355c-9.565 0-20.762-4.612-27.204-11.203-2.662-2.706-4.703-5.974-6.726-9.351-4.49-7.535-8.589-15.742-12.209-24.422.053-.78-.106-1.507-.284-2.179-.106-.435-.213-.89-.266-1.307.799-9.188 13.185-19.646 23.265-19.646.887 0 1.739.073 2.538.236 3.691.78 8.518 3.776 14.339 8.934 8.5 7.553 20.212 20.862 25.199 33.572.604 1.525 1.331 3.45 1.58 5.048.976 6.409-1.438 11.911-7.152 16.323-3.407 2.633-7.808 3.995-13.078 3.995zM196.836 206.594c-5.128-4.793-11.233-8.261-15.971-9.023-.887-.164-1.739-.236-2.555-.236-2.946 0-5.306.944-7.045 2.796-2.041 2.161-3.052 5.556-2.893 9.551 2.077 9.133 4.17 16.56 10.453 21.789 3.957 3.341 10.062 5.502 15.492 5.502 6.531 0 11.056-3.069 12.404-8.389.391-1.58.319-3.867.089-5.447-.781-5.302-4.419-11.33-9.973-16.542zm9.636 21.916c-1.313 5.229-5.732 8.207-12.156 8.207-5.394 0-11.411-2.143-15.35-5.429-6.211-5.193-8.287-12.565-10.363-21.644-.16-3.904.852-7.227 2.839-9.369 1.668-1.779 3.993-2.688 6.868-2.688.781 0 1.632.073 2.519.218 9.831 1.616 24.081 14.199 25.767 25.366.213 1.543.284 3.794-.125 5.338zM254.048 248.029l-.036-.018-.053-.018c-.657-.091-1.278-.127-1.881-.127-1.367 0-2.68.218-4.117.636-7.506 2.234-15.066 8.896-17.568 15.47-1.774 4.63-1.029 9.75-.319 14.708.657 4.594 1.278 8.898.036 12.692-1.935 5.846-7.063 9.532-12.032 13.091-5.253 3.776-10.683 7.663-12.014 14.09-.798 4.559.373 8.879 3.336 12.474 4.188 5.103 11.872 8.426 19.556 8.426 5.022 0 9.423-1.38 12.742-3.941 2.608-2.014 4.418-4.792 6.317-7.716l.302-.472c1.881-3.813 2.502-8.389 3.176-13.273.586-4.231 1.189-8.606 2.662-12.945.87-2.562 1.792-4.722 2.679-6.772 2.715-6.337 5.04-11.839 3.922-25.33-.639-7.735-1.97-17.122-6.708-20.972zm2.555 46.192c-.887 2.089-1.81 4.231-2.68 6.809-1.455 4.358-2.059 8.753-2.662 13.002-.674 4.848-1.313 9.404-3.159 13.182l-.267.435c-1.987 3.051-3.691 5.666-6.282 7.681-3.265 2.542-7.631 3.868-12.6 3.868-7.595 0-15.226-3.269-19.378-8.316-2.91-3.559-4.064-7.808-3.283-12.293 1.313-6.318 6.477-10.004 11.907-13.908 5.022-3.596 10.168-7.317 12.121-13.219 1.277-3.867.656-8.207 0-12.8-.728-4.94-1.455-10.042.302-14.599 2.466-6.519 9.955-13.11 17.391-15.325 1.438-.418 2.715-.618 4.064-.618.585 0 1.189.037 1.828.127 4.667 3.813 5.998 13.109 6.637 20.771 1.082 13.437-1.225 18.883-3.939 25.202zM35.687 296.163c-1.154-1.016-2.449-1.524-3.851-1.524-2.378 0-5.004 1.524-7.24 4.177-2.733 3.268-4.259 7.517-3.797 10.567 1.083 5.193 5.714 7.916 9.707 7.916 2.804 0 5.235-1.253 6.832-3.485 3.247-4.576 2.342-14.127-1.65-17.65zm1.473 17.486c-1.562 2.197-3.922 3.396-6.655 3.396-3.904 0-8.411-2.651-9.476-7.717-.443-2.96 1.047-7.136 3.762-10.368 2.165-2.597 4.756-4.067 7.045-4.067 1.349 0 2.591.473 3.709 1.452 3.922 3.451 4.791 12.838 1.615 17.305zM122.073 328.121c-.178-.362-.391-.744-.479-1.162l-.018-.036-.018-.037c-.923-.671-2.005-1.053-3.123-1.053-1.721 0-3.478.835-4.738 2.233-1.171 1.307-1.739 2.924-1.615 4.539l.018.037c.834 1.707 2.253 2.649 4.064 2.649 2.804 0 6.176-2.486 6.478-5.791v-.037c-.089-.49-.337-.926-.568-1.344zm-5.91 6.918c-1.685 0-3.07-.89-3.833-2.488-.142-1.543.408-3.067 1.544-4.339 1.207-1.326 2.91-2.143 4.561-2.143 1.047 0 2.059.363 2.928.999.106.417.319.798.515 1.162.213.435.444.816.515 1.253-.302 3.177-3.531 5.556-6.229 5.556zM442.508 4.485c5.732 2.851 12.475 3.142 18.065.799 2.804-1.198 5.182-3.014 6.991-5.284h-.283c-1.758 2.179-4.029 3.904-6.779 5.048-5.537 2.342-12.227 2.052-17.888-.763-1.845-.908-3.585-2.342-5.253-4.285h-.319c1.722 2.07 3.55 3.54 5.466 4.485zM239.231 14.454c2.236 1.616 4.365 3.341 6.424 4.993 4.987 3.995 9.69 7.735 14.871 9.514 5.803 2.96 11.357 4.449 16.645 4.449 4.384 0 8.589-1.017 12.546-3.069 11.677-6.01 18.261-19.138 20.781-30.341h-.249c-2.521 11.112-9.032 24.168-20.638 30.123-8.678 4.467-18.439 3.995-28.997-1.38-5.164-1.761-9.849-5.52-14.818-9.514-2.059-1.634-4.188-3.341-6.442-4.975-2.413-1.761-4.915-3.468-7.347-5.103-4.401-2.996-8.713-5.919-12.511-9.151h-.39c3.869 3.323 8.27 6.301 12.777 9.351 2.431 1.652 4.933 3.341 7.347 5.102zM323.097 19.011c1.579 3.922 5.058 5.828 10.63 5.828 2.822 0 5.75-.49 8.109-.89h.071c.515-.091 1.065-.127 1.65-.127 2.218 0 4.489.671 6.673 1.325 1.117.345 2.307.69 3.442.926.923.218 1.827.382 2.733.581 3.744.745 7.63 1.525 11.144 3.178 1.384.654 2.804 1.29 4.189 1.889 6.85 3.032 13.93 6.173 18.526 12.274.284.381.532.763.798 1.144 3.213 4.866 5.998 10.096 8.66 15.161 3.018 5.72 6.141 11.585 9.902 16.959 3.638 5.247 8.535 11.04 13.273 16.65 1.65 1.961 3.195 3.813 4.703 5.629 7.523 9.115 14.623 17.704 27.719 17.704h.018c3.353 0 6.903-.545 10.896-1.634 11.339-3.123 31.356-10.931 38.206-27.854 1.81-4.484 3.017-10.749 4.294-17.358.977-4.993 1.988-10.168 3.266-14.471v-.817c-1.402 4.467-2.467 9.95-3.478 15.234-1.295 6.628-2.502 12.855-4.294 17.323-6.814 16.85-26.761 24.584-38.047 27.708-3.976 1.107-7.524 1.634-10.843 1.634h-.018c-12.973 0-20.053-8.552-27.523-17.631-1.509-1.815-3.07-3.667-4.721-5.61-4.721-5.611-9.618-11.421-13.273-16.632-3.727-5.357-6.85-11.258-9.867-16.941-2.68-5.065-5.465-10.313-8.678-15.179-.248-.381-.531-.799-.816-1.162-4.631-6.137-11.729-9.296-18.598-12.347-1.401-.617-2.82-1.253-4.188-1.888-3.549-1.67-7.436-2.451-11.197-3.213-.923-.182-1.828-.363-2.732-.564-1.119-.254-2.289-.599-3.426-.926-2.2-.653-4.472-1.343-6.743-1.343-.585 0-1.171.055-1.687.127l-.105.019c-2.325.399-5.235.871-8.039.871-5.447 0-8.873-1.852-10.398-5.647-1.598-3.903-1.065-10.531-.586-16.396.07-.889.142-1.725.195-2.542h-.249c-.054.817-.106 1.653-.177 2.524-.48 5.883-.994 12.547.585 16.488zM421.248 7.445c7.045 9.769 19.557 15.579 33.451 15.579 3.461 0 6.814-.363 9.973-1.072 12.351-2.796 16.309-11.421 18.065-21.952h-.231c-.55 3.341-1.313 6.464-2.503 9.279-2.856 6.754-7.754 10.712-15.367 12.438-3.158.708-6.494 1.071-9.938 1.071-13.824 0-26.246-5.792-33.256-15.488-.78-2.07-1.438-4.576-2.076-7.299h-.248c.639 2.76 1.33 5.302 2.111 7.427l.018.018zM353.886 12.547c6.282.926 12.28 2.833 18.048 4.685 3.727 1.199 7.595 2.433 11.517 3.396 2.502.617 5.005 1.107 7.222 1.453 2.272.345 4.277.526 5.945.526 3.443 0 5.484-.726 6.123-2.179 1.756-3.868 3.106-12.275 3.176-20.427h-.231c-.07 8.117-1.42 16.469-3.141 20.336-.604 1.343-2.609 2.016-5.928 2.016-1.65 0-3.638-.164-5.909-.509-2.218-.345-4.702-.835-7.204-1.452-3.922-.962-7.756-2.197-11.482-3.396-5.803-1.852-11.801-3.777-18.118-4.703-6.211-.908-11.162-5.266-14.072-12.293h-.267c2.946 7.172 7.986 11.603 14.321 12.547zM492.285 6.283c-.32 8.933-.604 16.668-6.406 21.226-6.034 4.776-16.575 6.137-24.276 7.118-.763.109-1.526.218-2.236.309-1.313.181-2.715.272-4.135.272-7.843 0-16.202-2.705-24.294-5.302-7.24-2.306-14.711-4.721-21.703-5.138h-.018l-.018.018c-3.992 1.162-4.986 5.519-4.596 9.206 1.135 14.398 6.086 26.183 17.143 40.69 2.217 2.905 4.311 5.865 6.316 8.733 3.443 4.83 6.673 9.424 10.453 13.745 5.66 6.519 12.759 9.787 21.117 9.787 9.69 0 20.585-4.612 29.901-12.692 9.601-10.64 11.038-24.73 11.694-38.257.053-1.053.07-2.142.106-3.323.142-5.429.302-12.201 2.91-15.543 2.29-2.941 4.987-5.211 7.755-7.208v-.29c-2.84 2.033-5.59 4.321-7.949 7.372-2.644 3.377-2.805 10.187-2.965 15.651-.035 1.18-.053 2.288-.105 3.323-.639 13.472-2.076 27.544-11.624 38.112-9.263 8.025-20.088 12.638-29.724 12.638-8.287 0-15.351-3.287-20.94-9.714-3.762-4.34-7.009-8.897-10.435-13.763-2.005-2.851-4.1-5.792-6.317-8.715-11.021-14.472-15.972-26.238-17.089-40.582-.391-3.559.55-7.807 4.4-8.933 6.939.417 14.393 2.796 21.615 5.12 8.109 2.597 16.485 5.302 24.364 5.302 1.42 0 2.839-.109 4.171-.272.709-.109 1.473-.2 2.235-.29 7.72-.999 18.314-2.378 24.365-7.172 5.909-4.648 6.192-12.401 6.53-21.425.07-1.87.124-3.813.248-5.756.035-.181.035-.345.054-.526h-.249l-.018.509c-.142 1.961-.213 3.885-.283 5.774zM495.976 126.575l-.035.019c-1.633 1.325-4.1 3.341-3.833 6.119l.018.054.035.037c.533.417.994.908 1.402 1.38l.018.037h.035c3 .617 6.069.944 9.121.944 3.124 0 6.229-.345 9.264-.981v-.254c-3.034.654-6.14.981-9.264.981-3.033 0-6.068-.309-9.032-.926-.407-.454-.834-.926-1.349-1.344-.231-2.614 2.059-4.485 3.727-5.865l.035-.037c2.893-2.342 6.673-4.122 10.701-5.992 1.739-.799 3.478-1.634 5.182-2.505v-.273c-1.738.89-3.531 1.743-5.288 2.542-4.029 1.888-7.844 3.668-10.737 6.064zM506.304 2.052c.267 3.359 2.929 6.337 5.696 6.337v-.254c-2.662 0-5.199-2.851-5.447-6.101-.071-.708-.071-1.38-.018-2.034h-.231c-.054.654-.071 1.344 0 2.052zM473.208 47.009c-1.579 0-3.229.182-4.862.509-3.62.726-7.488 1.888-11.605 3.123-4.596 1.38-9.388 2.832-13.931 3.631-4.206.781-6.034 2.688-5.554 5.865v.019c1.473 3.177 2.607 6.718 3.814 10.458 2.591 8.171 5.289 16.614 11.836 21.008 3.088 2.052 6.851 3.141 10.879 3.141 6.548 0 13.238-2.796 17.959-7.499 3.868-3.885 6.689-10.205 7.559-16.904.924-7.064-.461-13.764-3.814-18.375-2.236-3.068-6.957-4.975-12.28-4.975zm8.358 40.074c-4.668 4.666-11.322 7.444-17.781 7.444-3.992 0-7.701-1.071-10.754-3.123-6.495-4.339-9.156-12.728-11.766-20.862-1.19-3.741-2.307-7.281-3.779-10.459-.444-3.05 1.242-4.83 5.359-5.556 4.543-.835 9.352-2.251 13.982-3.649 4.082-1.235 7.969-2.397 11.553-3.123 1.65-.327 3.266-.49 4.827-.49 5.253 0 9.884 1.87 12.085 4.884 7.293 9.986 3.922 27.291-3.726 34.935zM201.361 155.136c1.207 2.342 2.449 4.757 3.478 7.154.923 2.051 1.845 4.212 2.751 6.318 5.519 12.837 11.215 26.128 19.52 36.787 3.176 4.086 7.027 7.989 10.736 11.803 3.567 3.613 6.921 7.008 9.601 10.458 1.313 1.634 2.431 3.432 3.514 5.175 2.289 3.632 4.454 7.064 8.057 9.424l.035.019 1.029-.073c13.771-.835 25.678-1.561 38.366-3.922 9.015-1.67 15.403-3.468 18.935-5.32 7.293-3.832 9.281-10.676 11.41-17.939.231-.745.461-1.507.675-2.27 3.087-10.277 7.56-20.699 19.148-27.217l.035-.055.284-.327c2.396-1.29 4.792-2.597 7.204-3.904 4.189-2.252 8.519-4.612 12.795-6.864l5.484-2.959c2.803-1.544 5.714-3.123 8.588-4.594 1.988-.981 3.745-2.342 5.484-3.65l1.295-.999c1.598-1.198 3.372-2.415 5.394-3.213 3.798-1.525 8.004-1.708 12.05-1.907 3.514-.145 7.134-.327 10.541-1.344 3.247-.962 5.501-1.816 7.382-4.648 6.087-9.079 2.999-15.87-1.987-24.457-5.253-9.006-11.642-16.033-19.006-20.863-1.313-.872-2.751-1.562-4.135-2.215-1.544-.744-3.123-1.507-4.543-2.524-1.649-1.162-3.247-2.433-4.791-3.667-1.261-.999-2.538-2.034-3.851-3.014-5.342-3.94-11.73-8.316-18.899-10.895-2.378-.853-5.2-1.017-7.151-1.017-1.971 0-4.029.182-5.785.526-2.219.436-4.011 1.435-5.91 2.506-.798.454-1.65.926-2.519 1.362-.958.435-1.951.78-2.91 1.125-1.26.435-2.519.89-3.691 1.562-2.91 1.634-5.731 3.541-8.447 5.393-2.625 1.78-5.341 3.614-8.127 5.211-13.168 7.571-24.453 11.838-35.438 13.473-3.283.49-6.619.745-9.885.745-4.1 0-8.182-.382-12.139-1.144-3.088-.581-6.264-1.489-9.352-2.379-5.413-1.543-10.985-3.141-16.45-3.141-3.017 0-5.732.454-8.305 1.434-5.217 1.961-9.867 6.028-14.8 10.35-2.52 2.197-5.111 4.467-7.933 6.627-.639.472-1.438 1.035-2.342 1.67-2.005 1.453-4.507 3.232-6.655 5.084-3.993 3.504-5.093 6.7-3.78 11.076 1.101 3.595 2.999 7.318 5.04 11.239zm-1.118-22.116c2.147-1.87 4.631-3.631 6.655-5.084.905-.635 1.685-1.199 2.325-1.688 2.839-2.143 5.448-4.431 7.968-6.627 4.897-4.303 9.529-8.352 14.711-10.313 2.556-.944 5.253-1.434 8.234-1.434 5.43 0 10.984 1.598 16.379 3.159 3.106.89 6.282 1.798 9.388 2.397 3.975.744 8.057 1.125 12.174 1.125 3.266 0 6.619-.236 9.902-.745 11.055-1.634 22.342-5.937 35.545-13.509 2.785-1.598 5.5-3.45 8.145-5.211 2.697-1.852 5.537-3.74 8.412-5.375 1.17-.654 2.431-1.125 3.655-1.544.976-.345 1.97-.69 2.928-1.162.888-.417 1.739-.908 2.538-1.343 1.898-1.053 3.673-2.07 5.838-2.488 1.757-.345 3.798-.544 5.75-.544 1.934 0 4.721.199 7.08 1.035 7.116 2.561 13.523 6.936 18.828 10.877 1.296.962 2.609 1.979 3.852 2.996 1.56 1.217 3.158 2.488 4.791 3.668 1.455 1.017 3.053 1.798 4.596 2.542 1.367.654 2.787 1.326 4.082 2.197 7.347 4.831 13.717 11.821 18.935 20.773 4.951 8.534 8.003 15.27 2.005 24.222-1.846 2.778-4.064 3.595-7.24 4.54-3.389 1.035-7.01 1.18-10.487 1.362-4.081.164-8.288.363-12.155 1.906-2.023.799-3.799 2.034-5.413 3.232-.462.327-.888.672-1.313.999-1.721 1.307-3.496 2.669-5.43 3.649-2.91 1.453-5.803 3.032-8.607 4.558-1.792.98-3.655 2.015-5.5 2.978-4.277 2.269-8.607 4.594-12.777 6.864-2.414 1.325-4.81 2.633-7.223 3.922l-.035.018c-.09.091-.213.218-.303.345-11.641 6.591-16.113 17.049-19.219 27.363-.231.763-.461 1.525-.674 2.269-2.111 7.208-4.117 14.018-11.304 17.776-3.532 1.87-9.866 3.668-18.864 5.32-12.67 2.36-24.578 3.087-38.348 3.922l-.941.055c-3.549-2.324-5.696-5.702-7.967-9.315-1.083-1.743-2.218-3.541-3.514-5.193-2.715-3.451-6.069-6.882-9.618-10.477-3.709-3.813-7.578-7.735-10.719-11.802-8.287-10.64-14.002-23.913-19.502-36.714-.905-2.106-1.828-4.267-2.733-6.318-1.065-2.397-2.307-4.83-3.514-7.172-2.005-3.94-3.904-7.608-5.004-11.221-1.277-4.249-.23-7.372 3.692-10.786zM222.355 171.605l.461 1.798c4.81 18.302 11.943 29.16 26.352 39.964l.337.273c7.754 5.81 14.463 10.858 21.916 13.273 3.727 1.235 8.287 1.87 13.166 1.87h.019c6.478 0 13.079-1.162 17.64-3.087 12.049-5.102 16.468-15.887 21.543-28.416 6.672-16.396 18.367-37.604 36.095-45.557 3.212-1.434 6.317-1.725 9.601-2.034 1.26-.109 2.572-.254 3.904-.435 5.021-.727 10.629-1.78 17.178-3.232.922-.182 1.846-.4 2.768-.618 4.792-1.089 11.127-4.176 13.203-9.26 1.544-3.758 1.313-7.19-.621-10.186-5.785-8.898-25.713-11.947-33.895-11.966h-.159c-3.62 0-7.329.381-10.914.763-2.04.218-4.134.454-6.157.581-3.443.254-6.246 1.253-9.707 3.468-3.566 2.288-7.4 3.377-12.031 3.377-3.461 0-6.975-.581-10.684-1.18-1.117-.2-2.289-.381-3.461-.563-4.861-.726-10.06-1.053-16.414-1.053-3.939 0-7.914.127-11.748.254-3.814.109-7.736.236-11.605.236-7.045 0-12.724-.436-17.941-1.362-1.525-.291-3.176-.69-4.933-1.108-3.762-.926-8.021-1.979-12.298-1.979-2.36 0-4.472.29-6.46.908-9.884 3.05-18.154 15.415-19.68 25.075-.568 3.613-.479 7.317.248 11.657 1.136 6.609 2.662 12.401 4.277 18.538zm-4.277-30.16c1.508-9.587 9.689-21.843 19.485-24.875 2.005-.599 4.082-.908 6.406-.908 4.259 0 8.5 1.035 12.244 1.961 1.739.436 3.407.835 4.951 1.126 5.217.944 10.914 1.362 17.977 1.362 3.869 0 7.791-.109 11.605-.236 3.834-.127 7.809-.254 11.748-.254 6.317 0 11.535.345 16.379 1.053 1.172.2 2.343.381 3.461.563 3.727.6 7.24 1.162 10.719 1.162 4.666 0 8.553-1.071 12.173-3.377 3.425-2.197 6.193-3.178 9.583-3.432 2.023-.164 4.117-.363 6.158-.581 3.566-.382 7.293-.763 10.896-.763h.159c8.146.018 27.949 3.032 33.682 11.838 1.898 2.923 2.111 6.283.604 9.987-2.041 4.993-8.287 8.025-13.025 9.115-.905.2-1.828.399-2.75.617-6.549 1.435-12.156 2.488-17.179 3.214-1.313.181-2.626.308-3.886.417-3.301.327-6.441.617-9.672 2.07-17.816 7.971-29.529 29.233-36.236 45.684-5.059 12.456-9.441 23.223-21.402 28.271-4.543 1.925-11.09 3.069-17.55 3.069h-.019c-4.861 0-9.387-.636-13.096-1.834-7.418-2.397-14.09-7.426-21.863-13.255l-.337-.273c-14.339-10.767-21.455-21.571-26.246-39.819l-.461-1.797c-1.633-6.137-3.159-11.948-4.259-18.521-.746-4.321-.816-8.007-.249-11.584zM490.315 167.157l-.035.054c-.55 1.017-1.082 1.888-1.562 2.651-1.668 2.742-2.661 4.412-3.177 8.952-.391 3.595-.248 7.281-.105 10.858.159 4.212.336 8.57-.373 12.874-2.449 15.215-14.285 30.903-27.541 36.477-1.278.526-3.035 1.216-4.242 1.453-.958.164-1.863.273-2.715.273-7.791 0-9.582-7.844-11.305-15.416-.408-1.688-.798-3.432-1.26-5.047-1.773-6.228-4.17-10.35-7.736-13.382-3.603-3.014-8.447-4.975-15.705-6.355-2.945-.544-5.661-.817-8.287-.817-5.059 0-9.867.963-16.131 3.214-.284.091-.533.182-.799.291-3.478 1.216-6.441 2.269-8.535 5.592-4.012 6.428-7.276 16.814-5.732 24.168 1.508 7.209 6.619 8.661 12.014 10.15 1.047.291 2.094.599 3.158.926 1.65.563 2.965 1.125 4.117 1.798 8.164 4.684 17.16 8.933 28.376 13.364 9.512 3.758 14.126 12.038 18.579 19.99 4.348 7.736 8.82 15.743 17.746 19.557 1.367.58 2.893.89 4.561.89 1.971 0 4.152-.436 6.495-1.272 6.371-2.271 12.067-9.261 16.326-15.089 6.673-9.152 14.96-20.536 24.773-27.853l.781-.545v-.309l-.922.671c-9.832 7.318-18.137 18.721-24.827 27.891-4.224 5.81-9.901 12.764-16.202 15.016-2.324.817-4.489 1.235-6.424 1.235-1.633 0-3.123-.292-4.472-.854-8.837-3.795-13.31-11.749-17.622-19.465-4.471-8.008-9.139-16.287-18.721-20.082-11.197-4.431-20.195-8.68-28.34-13.364-1.154-.672-2.484-1.253-4.171-1.797-1.029-.345-2.112-.636-3.141-.926-5.342-1.507-10.382-2.923-11.854-9.986-1.525-7.299 1.721-17.594 5.715-23.986 2.022-3.232 4.969-4.304 8.393-5.484.267-.109.533-.2.816-.29 6.229-2.269 11.021-3.214 16.043-3.214 2.608 0 5.306.272 8.216.817 14.001 2.633 19.876 7.571 23.282 19.573.461 1.599.869 3.341 1.242 5.012 1.758 7.681 3.585 15.597 11.553 15.597.869 0 1.793-.072 2.75-.254 1.225-.236 3.018-.926 4.295-1.471 6.566-2.76 12.973-8.025 18.065-14.835 5.022-6.7 8.429-14.453 9.636-21.825.674-4.321.515-8.697.355-12.91-.143-3.577-.284-7.263.123-10.84.48-4.485 1.491-6.137 3.142-8.861.444-.744.976-1.616 1.562-2.633 4.668-3.885 10.222-5.883 16.469-5.883 1.65 0 3.318.145 5.039.435v-.254c-1.721-.272-3.389-.417-5.039-.417-6.318 0-11.908 1.998-16.646 5.938zM498.797 185.078c-1.225 3.649-1.455 7.426-1.721 11.784-.089 1.507-.178 3.086-.338 4.793-.567 6.609-1.81 13.418-3.034 20.009-1.188 6.519-2.324 12.674-2.538 17.521v.055l.054.037c.745.563 1.544 1.107 2.484 1.107.178 0 .354-.018.515-.072l.035-.019c2.379-1.398 4.916-2.669 7.383-3.904 3.514-1.743 7.08-3.522 10.363-5.792v-.291c-3.301 2.306-6.92 4.104-10.452 5.865-2.466 1.235-5.022 2.506-7.399 3.922-.143.036-.284.036-.408.036-.87 0-1.633-.49-2.325-.999.213-4.811 1.331-10.93 2.521-17.431 1.225-6.591 2.484-13.4 3.052-20.028.159-1.706.249-3.287.319-4.793.266-4.358.497-8.098 1.721-11.729 1.669-4.994 5.732-8.244 10.347-8.244.869 0 1.757.127 2.626.345v-.236c-.869-.218-1.757-.327-2.626-.327-4.702 0-8.856 3.287-10.577 8.389zM407.034 217.852c-4.472 0-8.997 2.252-9.032 7.281v.036c1.384 4.939 8.074 10.949 13.895 10.949 1.455 0 2.75-.381 3.887-1.107 1.633-1.108 2.68-2.742 3.034-4.739.462-2.579-.302-5.665-1.935-7.917-1.987-2.76-5.785-4.503-9.849-4.503zm11.552 12.365c-.336 1.924-1.365 3.522-2.945 4.575-1.065.727-2.324 1.09-3.744 1.09-5.732 0-12.298-5.901-13.664-10.749.053-4.866 4.454-7.027 8.802-7.027 3.993 0 7.702 1.67 9.671 4.394 1.58 2.197 2.325 5.211 1.881 7.717zM485.045 248.011l-.054-.018c-.426-.163-.905-.236-1.384-.236-2.006 0-4.17 1.29-6.247 2.524-.78.455-1.579.927-2.36 1.326-.443.236-.887.454-1.366.69-6.85 3.432-16.22 8.152-15.563 19.355.941 3.486 3.78 7.01 8.004 7.01.373 0 .781-.037 1.207-.11 7.666-3.249 12.244-12.346 15.402-19.954l.231-.545c1.419-3.414 3.017-7.245 2.147-9.986l-.017-.055zm-2.343 9.933l-.231.563c-3.141 7.535-7.701 16.614-15.261 19.81-.391.054-.763.091-1.136.091-4.082 0-6.85-3.433-7.772-6.792-.657-11.021 8.659-15.687 15.438-19.101.461-.236.941-.454 1.367-.69.78-.381 1.578-.871 2.377-1.325 2.041-1.235 4.17-2.488 6.123-2.488.426 0 .852.055 1.26.182.799 2.651-.781 6.427-2.165 9.75zM400.841 333.949c-2.253-2.124-4.524-3.231-6.726-3.231-5.199 0-8.66 6.082-9.388 12.075-.55 4.556-.426 9.459.337 13.508.746 3.977 2.308 5.975 5.537 7.117.728.255 1.615.491 2.68.709 1.721.362 3.229.544 4.632.544 3.744 0 6.478-1.324 8.128-3.939 1.898-2.997 1.597-9.95 1.117-13.601-.709-5.21-2.999-10.04-6.317-13.182zm4.987 26.655c-1.598 2.542-4.277 3.813-7.915 3.813-1.384 0-2.893-.163-4.579-.526-1.065-.218-1.934-.454-2.662-.708-3.176-1.107-4.631-2.978-5.358-6.936-.78-4.013-.888-8.898-.337-13.399.709-5.901 4.081-11.875 9.139-11.875 2.129 0 4.348 1.054 6.566 3.159 3.265 3.123 5.555 7.862 6.229 13.019.443 3.377.799 10.514-1.082 13.455zM25.04 414.894c2.272-.418 4.188-.908 6.051-1.362 2.272-.563 4.418-1.106 7.187-1.542 2.538-.382 5.217-.582 7.826-.781 5.838-.382 11.872-.8 17.018-3.56 6.478-3.468 7.152-12.292 4.934-19.501-3.745-12.22-8.571-20.662-14.765-25.819-2.431-2.016-4.72-4.34-6.921-6.608-4.454-4.521-9.05-9.207-15.03-11.675-4.561-1.907-9.813-3.306-14.889-4.648-3.07-.817-6.229-1.671-9.228-2.616-1.402-.435-2.928-.998-4.525-1.614-.87-.328-1.775-.655-2.698-.981v.254c.888.327 1.757.653 2.609.963 1.615.6 3.141 1.18 4.543 1.615 3.017.944 6.175 1.798 9.227 2.598 5.075 1.36 10.31 2.76 14.889 4.648 5.927 2.468 10.505 7.135 14.924 11.619 2.218 2.269 4.525 4.612 6.956 6.628 6.158 5.12 10.949 13.527 14.676 25.729 2.183 7.1 1.544 15.797-4.809 19.174-5.111 2.742-11.109 3.16-16.929 3.577-2.609.164-5.306.364-7.844.764-2.786.454-5.04.998-7.223 1.543-1.845.472-3.744.944-6.016 1.362-4.17.762-8.412 1.344-12.528 1.887-4.33.6-8.554 1.182-12.476 1.926v.255c3.922-.764 8.146-1.345 12.511-1.926 4.117-.563 8.358-1.126 12.529-1.906zM19.68 400.205c5.394-1.56 10.967-3.159 16.273-5.537 5.235-2.324 10.541-5.049 12.901-10.532 3.052-7.154.071-14.87-7.985-20.59-1.402-.999-2.715-1.98-4.011-2.941-5.394-4.049-10.488-7.862-17.834-9.315-4.756-.908-11.801-1.471-19.023-1.653v.254c7.205.146 14.232.71 18.988 1.635 7.275 1.453 12.351 5.248 17.728 9.279 1.295.962 2.626 1.96 4.01 2.941 7.968 5.664 10.914 13.255 7.897 20.282-2.307 5.392-7.578 8.115-12.759 10.403-5.306 2.378-10.86 3.976-16.255 5.538-2.804.799-5.714 1.652-8.554 2.577-3.62 1.199-7.4 1.962-11.056 2.67v.254c3.691-.727 7.489-1.471 11.127-2.688 2.821-.926 5.732-1.778 8.553-2.578zM17.959 429.095c5.448.218 11.056.398 16.539-.164 5.04-.527 9.671-1.58 14.161-2.633 1.118-.237 2.218-.509 3.354-.745.834-.199 1.65-.381 2.502-.564 8.553-1.869 17.409-3.775 24.613-8.806 8.394-5.828 9.494-18.066 5.661-26.51-3.496-7.734-9.352-13.854-15.013-19.773-4.703-4.885-9.565-9.95-13.043-15.942-1.597-2.18-2.91-4.286-4.188-6.318-4.117-6.537-7.365-11.693-16.007-13.764-16.645-3.977-31.02-7.408-33.699-24.386-.94-6.01.355-10.712 1.597-15.252.994-3.613 1.935-7.027 1.722-10.876l-.018-.055-.036-.018c-.443-.417-.869-.853-1.277-1.288-.55-.581-1.118-1.181-1.757-1.671l-.036-.037h-.053c-1.136.074-2.129.236-2.981.436v.236c.835-.182 1.828-.346 2.964-.418.603.49 1.153 1.053 1.685 1.615.408.418.816.872 1.26 1.253.213 3.813-.71 7.19-1.704 10.75-1.242 4.575-2.538 9.297-1.597 15.36 2.697 17.141 17.142 20.591 33.877 24.586 8.554 2.032 11.783 7.172 15.847 13.653 1.277 2.053 2.627 4.141 4.206 6.319 3.478 5.992 8.358 11.076 13.061 15.997 5.643 5.9 11.499 11.982 14.995 19.683 3.762 8.369 2.715 20.444-5.59 26.237-7.205 4.974-16.007 6.917-24.525 8.751-.852.182-1.685.382-2.52.546-1.118.253-2.236.507-3.353.78-4.472 1.016-9.104 2.087-14.144 2.614-5.466.581-11.056.363-16.486.163-6.3-.218-12.262-.435-17.977.455v.254c5.697-.89 11.677-.672 17.959-.472zM183.704 374.114c.781.38 1.508.725 2.094 1.179 2.786 2.07 5.164 4.903 6.672 6.936 3.815 5.102 6.087 10.005 7.56 16.433 2.076 8.987 7.577 12.547 16.397 15.67 5.04 1.778 10.63 2.742 16.166 2.742 2.804 0 5.537-.255 8.127-.727 9.512-1.744 15.617-7.627 16.734-16.196.248-1.779.568-3.65.888-5.448 1.296-7.262 2.626-14.78-1.491-21.48-3.371-5.447-9.742-6.21-16.13-6.21-1.225 0-2.484.037-3.656.055-1.171.037-2.378.073-3.514.073-2.307 0-3.993-.128-5.466-.346-5.093-.836-10.168-2.106-15.03-3.341-8.074-2.016-15.688-3.958-23.3-3.958-1.615 0-3.212.108-4.72.273-1.935.235-3.673 1.942-4.721 4.594-.958 2.469-1.242 5.773.284 7.662.763.926 1.97 1.507 3.105 2.089zm-3.159-9.661c.994-2.56 2.68-4.212 4.507-4.431 1.508-.162 3.088-.272 4.703-.272 7.595 0 15.172 1.906 23.229 3.94 4.898 1.233 9.956 2.505 15.066 3.322 1.491.255 3.194.346 5.501.346 1.136 0 2.342-.019 3.514-.036 1.189-.037 2.431-.055 3.656-.055 6.317 0 12.617.726 15.918 6.082 4.064 6.609 2.751 14.091 1.473 21.299-.318 1.815-.656 3.686-.887 5.466-1.118 8.442-7.134 14.253-16.539 15.995-2.573.491-5.306.709-8.092.709-5.502 0-11.074-.944-16.096-2.705-8.748-3.106-14.196-6.628-16.237-15.524-1.491-6.446-3.762-11.385-7.613-16.524-1.491-2.015-3.886-4.884-6.69-6.972-.621-.473-1.402-.835-2.13-1.216-1.153-.564-2.325-1.145-3.034-1.998-1.26-1.543-1.349-4.594-.249-7.427zM227.536 406.869c2.821 0 5.785-.509 7.151-.963.408-.145.834-.309 1.206-.489 2.307-1.108 3.638-2.996 3.691-5.302.036-1.799-.746-3.723-2.076-5.121-1.828-1.926-4.401-2.633-6.868-1.869-2.662.834-8.252 4.085-9.902 7.644-.585 1.234-.656 2.397-.231 3.468.87 2.16 4.295 2.633 7.027 2.633zm-6.602-5.992c1.65-3.485 7.134-6.718 9.76-7.517.657-.199 1.313-.292 1.934-.292 1.757 0 3.425.728 4.703 2.089 1.313 1.363 2.059 3.215 2.005 4.958-.053 2.196-1.313 4.013-3.549 5.065-.373.182-.763.345-1.171.49-1.367.454-4.277.944-7.081.944-3.78 0-6.176-.872-6.797-2.451-.426-1.018-.355-2.124.195-3.287zM301.004 498.764c-.054-.564-.036-1.126-.018-1.743.018-.635.035-1.27-.036-1.925-.462-3.958-2.041-8.807-3.69-13.927-1.704-5.229-3.461-10.622-4.295-15.815-.338-2.178-.568-4.521-.799-6.79-.691-7.408-1.402-15.034-6.459-18.448-2.289-1.563-5.644-2.269-10.523-2.269-2.732 0-5.679.218-8.571.418l-3.372.235c-9.991.617-30.789 3.269-38.047 8.896-9.902 7.682-11.091 20.864-10.931 32.774 1.171 14.98 11.18 23.369 22.2 31.83h.391c-11.073-8.498-21.171-16.85-22.377-31.848-.142-11.821 1.047-24.948 10.878-32.557 7.187-5.592 27.932-8.243 37.904-8.861 1.118-.054 2.254-.162 3.39-.235 2.875-.218 5.821-.418 8.536-.418 4.844 0 8.145.709 10.398 2.234 4.951 3.341 5.661 10.911 6.371 18.266.195 2.271.426 4.631.781 6.809.834 5.212 2.59 10.623 4.294 15.869 1.668 5.103 3.247 9.915 3.673 13.855.071.636.054 1.289.036 1.888-.019.636-.036 1.216.035 1.779.479 3.904-.035 8.553-1.331 13.219h.249c1.277-4.686 1.81-9.352 1.314-13.236zM33.841 500.506c-.142-3.449-.053-6.917.071-10.276.16-5.14.32-10.023-.55-13.944-2.112-9.643-13.984-16.523-24.4-19.757-3.088-.961-5.927-1.288-8.962-1.034v.236c2.999-.236 5.838.091 8.909 1.035 10.346 3.214 22.129 10.041 24.223 19.556.87 3.902.71 8.769.55 13.89-.124 3.378-.231 6.846-.071 10.295.177 4.104.035 7.972-.355 11.494h.248c.373-3.522.533-7.39.337-11.494zM288.652 496.529c-.443-2.342-1.277-5.174-2.165-8.188-1.26-4.341-2.715-9.261-3.442-14.255-.213-1.416-.391-2.76-.568-4.066-1.153-8.533-2.059-15.271-7.631-19.737-3.797-3.032-10.896-4.848-18.987-4.848-9.849 0-19.006 2.542-24.507 6.809-9.033 6.99-9.388 19.318-8.11 28.435 1.987 9.713 8.802 14.707 17.444 21.08 4.028 2.942 8.199 6.011 12.44 9.933l.337.309h.355c-.195-.144-.355-.327-.55-.49-4.242-3.94-8.589-7.136-12.422-9.969-8.606-6.301-15.403-11.293-17.373-20.917-1.295-9.042-.94-21.262 8.039-28.198 5.43-4.213 14.551-6.736 24.347-6.736 8.038 0 15.065 1.779 18.846 4.794 5.519 4.394 6.389 11.075 7.524 19.555.195 1.326.355 2.688.568 4.067.744 5.029 2.182 9.969 3.46 14.29.888 3.014 1.722 5.847 2.147 8.171.922 4.975.567 10.44-.941 15.434h.249c1.509-5.029 1.863-10.495.94-15.471zM116.146 482.076c-.994-3.577-1.757-10.295-1.189-14.962.106-.925.355-1.96.639-3.05.941-3.776 2.112-8.461-2.519-11.856l-.036-.018h-.018c-8.589-1.035-13.806 6.173-18.402 12.528-1.207 1.688-2.325 3.231-3.496 4.666-4.188 4.484-9.884 7.699-15.935 11.131-9.352 5.32-19.041 10.821-23.584 21.534-1.313 3.015-2.431 6.518-3.514 9.95h.248c1.083-3.414 2.201-6.882 3.46-9.859 4.543-10.658 14.179-16.105 23.513-21.407 6.051-3.432 11.766-6.664 15.971-11.203 1.189-1.417 2.325-2.996 3.531-4.648 4.561-6.301 9.707-13.455 18.154-12.456 4.454 3.305 3.372 7.698 2.413 11.585-.284 1.089-.55 2.143-.674 3.086-.532 4.685.195 11.458 1.207 15.034 1.526 5.501 3.762 11.023 6.086 16.904 1.704 4.231 3.425 8.571 4.934 12.965h.248c-1.509-4.431-3.266-8.788-4.951-13.055-2.36-5.865-4.56-11.403-6.087-16.869zM252.025 452.79c-5.324 0-10.577 1.597-14.037 4.284-4.507 3.468-7.205 7.644-6.708 17.776 3.07 12.909 16.752 19.864 28.073 19.864 1.474 0 2.893-.11 4.295-.346h.035l.018-.019c1.545-1.289 3.018-2.905 4.473-4.901l.018-.055c4.152-13.128 3.957-24.041-.515-29.924-3.195-4.249-8.908-6.681-15.651-6.681zm15.953 36.531c-1.455 1.961-2.875 3.541-4.383 4.83-1.385.199-2.805.327-4.242.327-11.25 0-24.808-6.9-27.825-19.646-.497-10.023 2.165-14.145 6.583-17.558 3.425-2.652 8.624-4.231 13.913-4.231 6.672 0 12.297 2.396 15.456 6.572 4.437 5.81 4.597 16.65.497 29.705zM193.677 488.978c-1.792-8.825-3.62-17.922-9.246-25.167-2.893-3.723-6.46-5.157-10.984-4.485-9.299 1.416-20.355 10.023-26.299 14.672-6.655 7.1-9.157 15.688-7.684 26.255.532 3.76 1.562 7.79 2.644 11.748h.248c-1.083-3.976-2.147-8.025-2.644-11.783-1.473-10.496 1.012-19.029 7.595-26.056 5.909-4.595 16.929-13.202 26.175-14.581.71-.109 1.402-.164 2.059-.164 3.478 0 6.317 1.489 8.695 4.558 5.59 7.19 7.436 16.25 9.21 25.039 1.58 7.898 3.212 16.088 7.648 22.679.071.127.124.218.213.309h.284l-.319-.435c-4.383-6.555-6.016-14.707-7.595-22.587zM253.179 469.421l-.018-.036c-.905-1.525-2.324-2.451-3.797-2.451-.461 0-.959.091-1.419.291l-.018.018c-.887.672-1.508 1.778-1.615 2.813-.071.746.142 1.435.621 1.962.302.255.621.545.923.908l.018.018h.036c.461.183.94.273 1.402.273 1.544 0 2.981-.926 3.833-2.451l.018-.055c.036-.436.018-.89.018-1.272v-.018zm-.266 1.253c-.816 1.453-2.147 2.288-3.603 2.288-.426 0-.87-.072-1.313-.218-.302-.346-.621-.653-.905-.89-.408-.49-.621-1.09-.55-1.78.106-.961.692-1.996 1.491-2.632.461-.182.905-.254 1.331-.254 1.384 0 2.715.871 3.567 2.287.018.362.018.78-.018 1.198zM11.783 480.279c-2.963-3.723-5.732-5.247-11.783-6.41v.255c5.945 1.144 8.678 2.633 11.606 6.3 5.164 6.519 8.34 18.648 9.104 27.164.142 1.579.213 3.05.213 4.412h.231c0-1.362-.053-2.851-.195-4.431-.763-8.552-3.975-20.754-9.175-27.29zM164.485 483.476c-.337 0-.692 0-1.047.036-3.248.272-6.104 1.815-8.287 4.448-3.106 3.777-4.49 9.551-3.887 16.251.231 2.578.639 5.21 1.207 7.789h.231c-.55-2.597-.976-5.211-1.206-7.808-.585-6.646.763-12.348 3.833-16.088 2.129-2.579 4.933-4.104 8.127-4.375.355-.019.692-.036 1.029-.036 9.636 0 13.203 11.747 16.344 22.078.657 2.179 1.295 4.304 1.97 6.229h.267c-.692-1.925-1.331-4.086-2.005-6.3-3.159-10.423-6.744-22.225-16.575-22.225zM99.039 493.244c-1.615-.236-3.248-.346-4.88-.346-6.531 0-12.937 1.816-18.509 5.247-5.448 3.378-9.867 8.153-12.83 13.854h.266c6.086-11.657 17.905-18.866 31.073-18.866 1.615 0 3.248.128 4.862.328 7.009.98 13.93 6.936 18.935 16.323.391.726.781 1.471 1.118 2.215h.248c-.355-.78-.746-1.562-1.154-2.324-5.058-9.459-12.014-15.452-19.13-16.432zM.337 503.63l-.337.018v.218h.337c1.846 0 3.354 1.217 4.294 3.449.55 1.363.852 3.015.834 4.686h.266c0-1.707-.319-3.414-.887-4.775-.976-2.306-2.573-3.595-4.507-3.595zM80.566 512h.408c3.744-2.633 8.323-4.14 12.972-4.14 4.578 0 8.802 1.471 12.209 4.14h.39c-3.478-2.833-7.879-4.376-12.599-4.376-4.827 0-9.53 1.579-13.38 4.376zM424.514 488.414c-2.804-5.267-5.732-10.732-8.039-16.379-1.277-3.086-2.431-6.464-3.655-10.059-5.218-15.343-11.126-32.72-29.44-32.72h-.728c-6.654.163-12.919 2.542-17.001 4.521-.993.454-2.022.943-3.052 1.453-3.069 1.434-6.246 2.923-9.104 4.538-8.323 4.703-17.87 6.991-27.08 9.226l-.124.018c-.781.2-1.615.399-2.502.563-6.176 1.344-13.859 3.032-16.309 10.368-1.863 5.664-.143 12.909 1.508 19.9.604 2.56 1.172 4.975 1.563 7.263 1.33 7.934 1.438 15.416.248 22.225-.16.871-.337 1.761-.55 2.669h.249c.213-.891.372-1.762.531-2.633 1.172-6.827 1.101-14.345-.248-22.297-.408-2.306-.958-4.722-1.562-7.282-1.668-6.972-3.354-14.181-1.509-19.773 2.397-7.226 10.009-8.86 16.131-10.185.888-.2 1.722-.382 2.502-.582l.125-.018c9.245-2.216 18.811-4.521 27.15-9.242 2.822-1.599 5.998-3.106 9.068-4.558 1.047-.473 2.059-.963 3.053-1.435 4.064-1.978 10.328-4.34 16.911-4.503.249-.018.497-.018.728-.018 18.137 0 24.01 17.303 29.227 32.592 1.206 3.577 2.36 6.973 3.638 10.077 2.342 5.665 5.234 11.113 8.057 16.415 2.396 4.484 4.667 8.715 6.619 13.091 1.934 4.357 3.975 7.79 6.122 10.35h.319c-2.218-2.542-4.259-6.01-6.246-10.44-1.934-4.376-4.206-8.626-6.601-13.145zM505.434 442.512c-15.083 5.828-25.162 16.832-29.12 31.83-1.118 4.176-1.881 9.532-2.644 14.707-.941 6.428-1.917 13.074-3.496 17.686-.692 1.98-1.65 3.74-2.893 5.266h.283c1.207-1.525 2.166-3.25 2.822-5.175 1.615-4.648 2.572-11.293 3.514-17.74.763-5.174 1.543-10.53 2.644-14.688 3.939-14.889 13.947-25.856 28.979-31.667 1.242-.472 3.371-1.071 5.182-1.453.426-.071.852-.162 1.295-.218v-.254l-1.349.236c-1.81.382-3.957.982-5.218 1.471zM490.776 331.697c-4.827 1.108-9.476 3.505-13.966 5.848-4.508 2.324-9.156 4.738-13.948 5.773-12.404 2.741-17.001-8.37-21.046-18.212-.586-1.397-1.137-2.742-1.687-4.031-2.307-5.138-4.915-9.841-7.808-13.98-5.803-8.333-12.476-14.98-19.857-19.755-6.832-4.412-12.6-6.827-18.102-7.571-8.926-1.218-15.279 1.615-22.59 4.866-1.58.707-3.231 1.452-4.916 2.142-4.826 1.998-10.31 4.267-14.055 9.206-2.803 3.704-4.933 8.188-6.956 12.547l-.479.981c-3.779 8.007-6.548 15.905-9.476 24.258-.657 1.889-1.313 3.813-1.952 5.701-1.757 5.176-3.566 10.532-5.785 15.598-1.65 3.867-4.17 7.227-6.602 10.494-1.366 1.816-2.768 3.688-3.992 5.63-3.142 4.901-8.057 9.188-12.83 13.327-1.722 1.507-3.354 2.924-4.881 4.357-.958.872-1.969 1.779-3.07 2.724-4.933 4.358-10.523 9.296-11.996 15.562-.195.835-.372 1.67-.549 2.47-1.58 7.009-2.965 13.072-9.815 17.466-6.477 4.159-14.355 5.502-21.294 6.683-3.283.563-6.619.999-9.831 1.453-5.963.779-11.57 1.543-16.664 2.904-11.641 3.178-18.739 11.44-21.1 24.605-2.289 12.836.036 28.506 2.627 34.916 2.325 5.773 6.247 10.294 10.949 14.344h.39c-4.791-4.067-8.766-8.624-11.127-14.453-2.555-6.356-4.898-21.971-2.608-34.772 2.36-13.056 9.37-21.263 20.922-24.386 5.093-1.397 10.701-2.142 16.645-2.94 3.212-.418 6.548-.854 9.831-1.417 6.957-1.199 14.853-2.542 21.384-6.736 6.956-4.448 8.305-10.55 9.902-17.612.194-.799.39-1.635.567-2.47 1.455-6.191 7.027-11.075 11.925-15.416 1.082-.961 2.13-1.869 3.07-2.76 1.525-1.415 3.141-2.85 4.88-4.339 4.773-4.158 9.707-8.425 12.849-13.382 1.242-1.925 2.644-3.794 3.992-5.611 2.432-3.268 4.969-6.663 6.654-10.531 2.219-5.066 4.029-10.44 5.785-15.633.639-1.87 1.296-3.813 1.952-5.701 2.929-8.335 5.696-16.215 9.477-24.24l.443-.981c2.041-4.338 4.152-8.806 6.974-12.51 3.691-4.866 9.14-7.117 13.932-9.097 1.703-.726 3.336-1.453 4.915-2.143 7.294-3.269 13.593-6.083 22.483-4.884 5.466.762 11.18 3.142 17.994 7.553 7.348 4.757 14.02 11.385 19.805 19.72 2.857 4.103 5.465 8.806 7.755 13.926.567 1.272 1.118 2.615 1.704 4.032 1.969 4.738 4.17 10.112 7.417 13.835 3.745 4.267 8.287 5.755 13.913 4.521 4.791-1.054 9.458-3.486 13.983-5.829 4.489-2.306 9.14-4.721 13.913-5.792 7.879-1.798 15.102.291 21.17 2.487v-.254c-6.086-2.196-13.309-4.249-21.224-2.488zM478.283 423.465c-5.625 5.593-10.949 10.895-17.924 12.964-9.688 2.924-17.018-4.376-24.115-11.457l-1.296-1.307c-3.603-3.56-7.915-6.266-12.085-8.861-2.981-1.87-6.087-3.813-8.873-6.046-2.094-1.69-4.313-3.251-6.459-4.758-1.455-1.053-2.945-2.106-4.365-3.159-2.379-1.778-4.029-4.575-5.644-7.3-.87-1.451-1.757-2.978-2.769-4.267-2.732-3.595-6.584-6.318-10.328-8.97-6.85-4.83-13.326-9.405-13.788-18.883-.267-5.647.976-12.656 3.407-19.247 2.324-6.228 6.708-12.982 12.049-18.539 3.639-3.777 7.33-5.538 10.967-5.229 6.46.563 11.996 7.553 16.096 13.6 2.414 3.559 3.372 6.973 4.365 10.604.586 2.106 1.19 4.249 2.112 6.555.923 2.289 2.04 4.539 3.087 6.718 1.704 3.433 3.426 6.973 4.508 10.768 1.81 6.337 2.165 15.525-.639 20.827-2.732 5.12-1.438 13.816 1.438 18.375 2.609 4.139 9.139 6.772 14.392 8.898 1.188.472 2.29.943 3.283 1.36.462.218.94.418 1.384.636 1.704.764 3.141 1.453 4.791 1.799 8.146 1.706 13.771-2.288 17.16-12.202 3.567-10.422 1.102-19.9-6.955-26.709-2.449-2.053-5.254-3.632-7.969-5.157-1.225-.69-2.502-1.416-3.727-2.161-.319-.2-.639-.381-.958-.599-3.55-2.161-7.95-4.849-10.382-7.971-3.637-4.685-6.619-9.75-8.872-15.089-1.136-2.725-2.041-5.502-2.981-8.462-.691-2.124-1.402-4.304-2.219-6.518-1.863-5.048-4.702-9.533-6.725-12.402-3.834-5.338-10.736-12.51-17.605-15.125-10.86-4.122-25.483 6.846-32.67 15.198-4.028 4.685-6.637 10.53-8.677 15.614-.551 1.381-1.083 2.797-1.633 4.159-2.964 7.626-5.785 14.834-10.471 21.479-1.508 2.144-2.75 4.431-3.957 6.647-.869 1.578-1.757 3.249-2.75 4.829-2.521 4.031-6.354 6.428-10.133 8.425-1.74.927-3.55 1.78-5.289 2.633-5.039 2.397-10.239 4.902-14.48 8.987-2.697 2.616-3.762 5.376-3.193 8.226.94 4.721 6.051 8.262 10.54 9.968 9.317 3.56 20.106 2.271 29.601 1.108l1.225-.127 2.253-.254c4.189-.435 8.163-.854 12.138-3.178.639-.363 1.26-.728 1.881-1.09 6.017-3.504 11.216-6.554 18.119-8.116 4.33-.999 10.771-.907 14.693 1.616 1.952 1.235 2.786 3.124 3.674 5.12.532 1.235 1.1 2.488 1.916 3.631 3.301 4.413 7.755 7.881 12.067 11.259 4.224 3.286 8.606 6.699 11.907 11.003 1.97 2.56 3.62 5.737 5.234 8.788 1.598 3.068 3.266 6.229 5.164 8.661 3.922 4.956 9.246 6.664 15.066 4.813 5.04-1.617 10.63-5.993 16.043-10.225.834-.653 1.633-1.288 2.431-1.906 2.821-2.178 5.572-4.466 8.233-6.681 7.313-6.083 14.232-11.839 22.023-15.071 3.088-1.27 6.619-2.197 10.398-2.94v-.255c-3.833.763-7.382 1.67-10.487 2.978-7.826 3.232-14.765 9.024-22.094 15.107-2.661 2.215-5.394 4.484-8.216 6.664-.799.616-1.615 1.252-2.414 1.906-5.394 4.212-10.967 8.588-15.988 10.185-5.715 1.815-10.967.145-14.801-4.739-1.881-2.396-3.478-5.41-5.146-8.588-1.614-3.087-3.3-6.282-5.269-8.842-3.336-4.323-7.702-7.754-11.943-11.059-4.295-3.358-8.73-6.827-12.014-11.221-.799-1.091-1.349-2.343-1.898-3.559-.905-2.017-1.758-3.941-3.744-5.248-3.993-2.56-10.523-2.651-14.889-1.652-6.939 1.598-12.156 4.63-18.189 8.171-.621.344-1.26.708-1.881 1.107-3.922 2.269-7.861 2.669-12.05 3.104-.728.091-1.491.182-2.254.255l-1.206.163c-9.494 1.126-20.23 2.415-29.512-1.126-5.555-2.106-9.637-5.955-10.381-9.786-.551-2.76.496-5.448 3.141-7.99 4.188-4.049 9.387-6.555 14.392-8.969 1.757-.817 3.567-1.688 5.323-2.615 3.78-1.997 7.666-4.431 10.223-8.534.976-1.578 1.881-3.213 2.75-4.811 1.207-2.216 2.449-4.504 3.939-6.61 4.721-6.682 7.524-13.908 10.506-21.553.532-1.379 1.065-2.76 1.633-4.176 2.041-5.047 4.631-10.858 8.624-15.524 7.134-8.298 21.649-19.211 32.403-15.124 6.814 2.577 13.682 9.731 17.48 15.052 2.059 2.85 4.879 7.298 6.725 12.328.816 2.197 1.526 4.394 2.201 6.501.94 2.96 1.846 5.756 2.998 8.479 2.254 5.356 5.254 10.44 8.891 15.143 2.467 3.16 6.887 5.864 10.435 8.044.337.181.656.381.994.599 1.206.745 2.502 1.453 3.727 2.161 2.697 1.508 5.482 3.068 7.914 5.121 7.968 6.735 10.416 16.123 6.902 26.455-3.353 9.786-8.891 13.708-16.911 12.038-1.597-.346-3.052-.999-4.738-1.78-.443-.2-.923-.418-1.384-.653-.977-.418-2.111-.854-3.283-1.343-5.234-2.125-11.73-4.739-14.285-8.808-2.822-4.502-4.117-13.055-1.438-18.12 2.822-5.339 2.467-14.636.656-21.026-1.065-3.795-2.821-7.354-4.489-10.804-1.083-2.179-2.165-4.431-3.088-6.719-.923-2.269-1.526-4.43-2.112-6.518-.993-3.65-1.951-7.082-4.4-10.677-4.135-6.064-9.725-13.128-16.273-13.69-3.708-.327-7.453 1.452-11.144 5.283-5.377 5.593-9.778 12.384-12.102 18.63-2.449 6.628-3.691 13.69-3.426 19.355.462 9.587 7.276 14.399 13.878 19.065 3.727 2.633 7.577 5.356 10.292 8.915.994 1.27 1.846 2.724 2.751 4.267 1.614 2.706 3.283 5.521 5.679 7.336 1.438 1.071 2.945 2.143 4.383 3.159 2.13 1.525 4.348 3.106 6.441 4.758 2.805 2.251 5.91 4.193 8.909 6.046 4.17 2.614 8.465 5.302 12.031 8.861.462.435.87.854 1.313 1.307 7.134 7.1 14.516 14.472 24.348 11.512 7.009-2.088 12.368-7.39 18.029-13.019 5.359-5.338 10.932-10.876 18.42-14.091 4.791-2.051 10.009-3.231 15.119-4.303v-.254c-5.146 1.071-10.381 2.269-15.226 4.357-7.506 3.214-13.078 8.753-18.491 14.108zM487.014 351.072c-3.85.835-7.79 2.831-11.96 4.92-6.921 3.486-14.055 7.101-20.639 4.994-11.836-3.777-16.379-16.651-20.39-27.981-.834-2.324-1.598-4.503-2.432-6.609-1.827-4.666-4.135-9.005-6.832-12.837-4.205-5.992-9.369-9.695-14.835-13.601-.834-.58-1.65-1.179-2.502-1.778-4.81-3.505-10.683-6.954-17.462-5.955-2.129.308-4.348 1.471-6.478 2.596-1.349.727-2.626 1.38-3.868 1.853-.923.345-1.863.707-2.822 1.071-7.258 2.669-14.764 5.466-19.928 11.475-1.473 1.725-2.751 3.978-3.975 6.119-.64 1.145-1.242 2.196-1.863 3.214-2.574 4.013-4.774 8.443-6.602 13.164-1.953 5.14-3.106 10.641-4.206 15.979-1.207 5.756-2.449 11.729-4.702 17.141-2.325 5.556-8.465 9.551-13.896 13.056-1.474.961-2.875 1.87-4.117 2.778-3.69 2.632-6.903 5.81-9.974 8.896-2.022 2.015-4.116 4.121-6.334 6.027-5.129 4.431-7.418 12.003-6.017 19.757 2.484 13.581 7.648 15.815 18.829 17.721 8.518 1.434 18.438 1.089 30.291-1.018 6.832-1.233 13.327-5.755 19.592-10.095 2.289-1.599 4.436-3.088 6.548-4.377 8.802-5.446 19.255-4.302 27.932 3.033 1.118.926 2.236 1.852 3.354 2.741 6.602 5.411 12.848 10.514 16.166 18.63 1.473 3.54 2.432 7.317 3.371 10.985.906 3.577 1.846 7.281 3.266 10.785 2.13 5.265 6.3 11.095 10.896 15.216 3.957 3.576 9.955 7.427 16.023 5.611 5.644-1.69 8.963-8.244 12.494-15.181 2.235-4.412 4.578-8.95 7.648-12.727 3.992-4.92 9.334-9.369 13.007-12.292l.373-.31c7.879-6.246 15.297-12.165 25.128-14.162.621-.145 1.26-.255 1.898-.345v-.254c-.656.107-1.295.218-1.97.344-9.884 2.017-17.319 7.953-25.181 14.218l-.408.309c-3.674 2.924-9.016 7.408-13.043 12.328-3.088 3.795-5.394 8.371-7.666 12.784-3.496 6.898-6.814 13.399-12.352 15.052-5.945 1.797-11.872-2.017-15.794-5.538-4.507-4.049-8.767-9.986-10.825-15.144-1.42-3.486-2.359-7.19-3.265-10.749-.94-3.668-1.899-7.463-3.372-11.021-3.353-8.171-9.92-13.527-16.273-18.72-1.083-.89-2.218-1.816-3.318-2.741-8.784-7.408-19.325-8.535-28.216-3.07-2.129 1.309-4.277 2.797-6.531 4.377-6.281 4.357-12.758 8.843-19.537 10.059-11.818 2.143-21.703 2.47-30.203 1.017-11.057-1.869-16.166-4.103-18.633-17.521-1.402-7.663.887-15.143 5.926-19.501 2.219-1.942 4.33-4.031 6.371-6.064 3.07-3.068 6.247-6.264 9.92-8.879 1.242-.89 2.662-1.798 4.117-2.76 5.448-3.522 11.623-7.518 13.984-13.146 2.272-5.447 3.514-11.44 4.72-17.195 1.118-5.338 2.235-10.822 4.206-15.924 1.81-4.702 4.01-9.133 6.565-13.146.64-.999 1.242-2.089 1.882-3.215 1.224-2.143 2.484-4.357 3.957-6.082 5.129-5.955 12.6-8.734 19.822-11.421.94-.363 1.881-.708 2.839-1.053 1.26-.491 2.573-1.199 3.851-1.871 2.129-1.125 4.33-2.271 6.424-2.578 6.708-.981 12.493 2.451 17.303 5.92.852.617 1.65 1.18 2.484 1.761 5.465 3.923 10.611 7.59 14.781 13.545 2.697 3.831 4.969 8.153 6.814 12.82.816 2.069 1.58 4.267 2.414 6.59 4.028 11.386 8.589 24.314 20.566 28.126 6.655 2.125 13.86-1.507 20.799-5.012 4.17-2.106 8.092-4.066 11.89-4.902 5.394-1.18 15.351-1.652 24.95-1.417v-.254c-9.618-.199-19.591.254-24.986 1.435zM482.17 156.916c-6.478 4.594-10.363 11.112-11.535 19.338-.461 3.213-.106 6.736.248 10.114.391 3.559.764 7.226.213 10.694-.604 3.977-2.697 7.535-5.341 9.115-1.863 1.126-3.922 1.253-6.087.417-6.992-8.316-12.706-13.835-21.313-17.431-2.467-1.017-4.951-1.906-8.057-2.887-1.508-.49-3.035-.999-4.508-1.489-9.352-3.142-19.041-6.373-34.781-5.048-7.56.635-13.256 2.07-18.225 7.208-3.283 3.396-5.768 7.481-8.128 11.439-1.739 2.833-3.514 5.792-5.554 8.425-1.047 1.344-2.272 2.669-3.461 3.958-1.757 1.907-3.603 3.868-4.951 6.046-2.786 4.521-2.91 12.057-1.863 17.123 1.385 6.627 5.519 12.31 9.672 17.576 1.012 1.307 1.987 2.742 3.052 4.249 2.769 4.068 5.644 8.261 9.636 10.441 4.383 2.36 9.494 2.378 14.356 2.033 1.687-.108 3.39-.6 5.058-1.035 2.432-.673 4.951-1.38 7.383-.926 8.642 1.579 18.438 7.735 24.701 12.982 3.408 2.833 6.495 6.028 9.175 9.515 2.095 2.723 4.099 5.465 6.247 8.406 3.655 5.012 7.436 10.185 11.729 15.307 3.993 4.775 9.192 9.277 17.355 6.392 4.632-1.652 8.624-4.485 12.333-7.263 5.483-4.14 10.452-9.933 15.262-15.56 4.383-5.157 8.553-10.023 12.652-13.001 1.118-.817 2.449-1.58 4.561-2.088v-.236c-2.164.49-3.566 1.307-4.703 2.124-4.135 2.996-8.287 7.862-12.705 13.055-4.773 5.593-9.725 11.403-15.209 15.507-3.814 2.887-7.666 5.611-12.262 7.227-8.039 2.851-13.167-1.598-17.107-6.3-4.275-5.12-8.074-10.315-11.711-15.308-2.148-2.941-4.171-5.701-6.265-8.406-2.68-3.487-5.768-6.719-9.21-9.569-6.3-5.247-16.131-11.438-24.809-13.019-2.484-.453-5.022.236-7.488.926-1.65.436-3.337.909-5.005 1.017-4.827.346-9.902.346-14.231-1.996-3.94-2.144-6.797-6.319-9.565-10.351-1.029-1.525-2.023-2.959-3.052-4.285-4.117-5.211-8.27-10.876-9.619-17.467-1.029-5.029-.904-12.474 1.846-16.94 1.313-2.161 3.141-4.122 4.916-6.028 1.188-1.271 2.431-2.596 3.46-3.94 2.076-2.669 3.851-5.61 5.555-8.461 2.396-3.958 4.845-8.025 8.128-11.384 4.915-5.084 10.559-6.519 18.064-7.154 15.705-1.308 25.377 1.906 34.693 5.047 1.473.491 2.998.999 4.508 1.489 3.087.981 5.59 1.871 8.021 2.887 8.589 3.559 14.303 9.079 21.241 17.377l.018.018.036.018c2.272.872 4.401.708 6.335-.418 2.697-1.616 4.845-5.265 5.466-9.296.532-3.486.142-7.172-.231-10.749-.337-3.377-.692-6.882-.249-10.059 1.172-8.171 5.022-14.617 11.429-19.174 7.329-5.211 17.568-7.644 29.706-7.172v-.254c-12.192-.454-22.466 1.98-29.83 7.227zM139.553 23.351c.408 3.413.923 9.751-.231 13.999-1.917 7.008-7.453 13.037-12.794 18.883-7.56 8.225-15.368 16.741-12.972 28.125 1.295 6.137 4.525 9.95 9.938 11.675 4.685 1.507 10.452 1.308 16.947.944 11.854-.672 19.893 1.325 24.56 3.141 4.72 1.852 9.05 4.902 13.274 7.88 5.643 3.976 10.984 7.753 17.018 8.588 2.414.327 4.401.254 6.672-.273 5.643-1.271 9.902-4.176 14.41-7.263 7.666-5.21 15.581-10.622 30.949-7.481 3.372.671 6.726 1.706 10.275 2.778 11.321 3.432 23.033 6.955 36.13-.145 11.837-6.082 19.29-17.249 26.477-28.053 3.354-5.029 6.833-10.259 10.665-14.835 4.916-5.847 11.605-13.854 19.822-11.076 3.301 1.09 6.708 1.634 10.009 2.161 5.235.853 10.63 1.725 15.491 4.848 3.478 2.233 6.176 5.411 8.803 8.497 1.225 1.435 2.502 2.924 3.833 4.304 2.946 3.032 5.323 6.609 7.63 10.059 1.971 2.941 3.994 5.955 6.371 8.661 3.194 2.887 5.998 5.411 9.264 8.425 3.939 3.686 7.542 8.062 11.02 12.274 6.673 8.116 12.955 15.76 21.171 18.23 5.804 1.761 11.802 1.525 19.45-.727 4.081-1.216 9.476-3.559 13.273-5.338 7.701-3.577 16.379-8.479 23.176-13.073 5.306-3.595 9.352-8.644 11.818-14.69v-.636c-2.413 6.246-6.53 11.457-11.925 15.107-6.814 4.594-15.475 9.496-23.177 13.073-3.779 1.761-9.156 4.122-13.22 5.32-7.631 2.234-13.575 2.47-19.325.745-8.146-2.451-14.41-10.077-21.064-18.157-3.478-4.212-7.08-8.606-11.055-12.293-3.266-3.032-6.053-5.574-9.246-8.443-2.36-2.669-4.365-5.702-6.336-8.625-2.307-3.45-4.72-7.027-7.648-10.077-1.348-1.38-2.607-2.869-3.832-4.321-2.627-3.087-5.342-6.283-8.855-8.516-4.898-3.159-10.328-4.031-15.581-4.866-3.3-.544-6.708-1.089-9.955-2.179-8.376-2.814-15.155 5.248-20.089 11.149-3.85 4.612-7.311 9.805-10.682 14.852-7.188 10.804-14.605 21.952-26.371 27.98-13.025 7.064-24.701 3.541-35.988.127-3.549-1.072-6.903-2.088-10.293-2.778-15.438-3.141-23.407 2.27-31.108 7.517-4.489 3.069-8.73 5.956-14.356 7.227-2.218.508-4.188.581-6.566.254-5.963-.799-11.304-4.557-16.93-8.552-4.206-2.959-8.589-6.046-13.327-7.898-4.667-1.816-12.741-3.832-24.648-3.16-11.127.636-23.762 1.362-26.654-12.419-2.342-11.258 5.413-19.737 12.919-27.926 5.377-5.865 10.931-11.911 12.848-18.974 1.118-4.049.763-9.896.266-14.09-.816-6.736-2.751-13.654-4.809-20.953-.213-.781-.426-1.562-.657-2.361h-.248l.692 2.433c2.04 7.299 3.993 14.181 4.773 20.917zM485.541 485.127c-.887 4.849-1.295 9.859-1.703 14.708-.355 4.231-.692 8.333-1.331 12.165h.231c.64-3.85.994-7.971 1.331-12.148.426-4.848.834-9.859 1.721-14.688 3.07-16.851 11.305-26.929 23.833-29.125.816-.145 1.597-.235 2.378-.309v-.236c-.799.056-1.579.145-2.432.31-12.617 2.214-20.922 12.346-24.027 29.323zM416.244 498.527c-1.385-4.994-3.62-10.149-5.785-15.126l-.373-.854c-1.401-3.285-2.555-6.79-3.762-10.513-2.467-7.606-5.021-15.47-10.08-21.134-4.489-5.013-11.818-7.9-20.123-7.9-4.649 0-9.121.928-12.919 2.67-4.489 2.053-8.128 4.503-11.126 7.481-2.503 2.488-6.158 3.777-9.69 5.066-2.36.817-4.791 1.706-6.921 2.924-6.425 3.74-10.47 8.951-11.677 15.144-1.136 5.756-1.012 13.182-.887 20.354.053 4.358.141 8.88-.055 13.055-.035.727-.088 1.526-.159 2.307h.249c.053-.78.105-1.562.142-2.307.195-4.157.124-8.696.054-13.055-.125-7.172-.231-14.58.887-20.317 1.207-6.102 5.199-11.276 11.57-14.98 2.094-1.198 4.525-2.07 6.885-2.905 3.531-1.272 7.205-2.578 9.761-5.103 2.981-2.959 6.602-5.392 11.073-7.444 3.779-1.725 8.199-2.633 12.813-2.633 8.234 0 15.492 2.852 19.946 7.826 5.022 5.629 7.577 13.454 10.026 21.045 1.225 3.703 2.359 7.244 3.779 10.514l.391.871c2.147 4.974 4.365 10.095 5.75 15.088.781 2.814 1.455 5.919 2.111 8.933.338 1.545.656 3.034.994 4.468h.248c-.337-1.434-.674-2.96-1.012-4.521-.638-3.014-1.312-6.137-2.111-8.951zM405.366 502.903c-.567-3.94-1.225-8.406-2.786-12.312-.621-1.597-1.58-2.923-2.519-4.212-.729-.98-1.438-1.98-2.023-3.104-.852-1.599-1.526-3.396-2.236-5.302-2.059-5.394-4.17-10.967-9.99-12.548-1.385-.381-3.194-.544-5.537-.544-2.467 0-5.075.2-7.4.4-.922.054-1.773.126-2.572.198-7.542.473-15.599 3.414-21.597 7.899-7.223 5.373-9.299 14.435-10.239 20.826-.71 4.575-1.35 11.348.816 17.086.105.235.195.472.283.708h.267l-.337-.799c-2.147-5.665-1.49-12.42-.816-16.977.94-6.318 3.017-15.343 10.168-20.662 5.963-4.448 14.002-7.372 21.473-7.862.799-.037 1.65-.109 2.573-.182 2.324-.2 4.933-.418 7.382-.418 2.307 0 4.1.2 5.483.581 5.714 1.544 7.79 7.064 9.813 12.365.728 1.942 1.42 3.722 2.254 5.338.586 1.126 1.331 2.142 2.041 3.123.922 1.289 1.881 2.614 2.502 4.159 1.544 3.885 2.2 8.333 2.768 12.274.408 2.796.568 5.919.551 9.06h.231c.035-3.159-.142-6.282-.55-9.097zM511.787 473.833h-.018c-11.232 1.035-17.516 13.546-19.184 38.167h.249c1.65-24.458 7.843-36.878 18.935-37.931l.231.036v-.236l-.213-.036zM508.966 504.755c-1.225 2.088-2.431 4.503-2.662 7.245h.231c.248-2.65 1.437-5.048 2.625-7.081.994-.618 1.953-.963 2.84-1.054v-.218c-.94.072-1.934.418-2.999 1.071l-.035.036zM131.017 479.245c1.845-6.156 4.986-9.879 9.92-15.452.763-.891 1.615-1.763 2.519-2.724 3.514-3.724 7.507-7.954 8.394-12.348 1.774-8.788-3.532-13.944-8.979-17.795-2.697-1.906-5.714-3.413-8.642-4.866-3.78-1.888-7.702-3.849-10.932-6.698-3.442-3.052-6.406-7.391-8.837-12.929-1.1-2.451-1.579-5.121-2.076-7.682-.461-2.505-.94-5.084-1.97-7.479-4.756-10.895-10.967-23.206-21.117-31.83-4.419-3.74-9.991-9.659-11.464-16.705-.959-4.63.373-8.679 1.455-11.93l.178-.581c2.413-7.334 9.618-24.839 24.702-29.251 2.698-.8 6.016-1.38 9.512-2.016 4.401-.763 8.962-1.58 12.263-2.833 5.182-1.96 8.873-4.666 12.794-7.733l.568-.436c3.744-2.941 8.412-6.591 14.498-6.118 5.27.453 11.304 3.249 16.503 7.752 5.271 4.54 8.784 10.042 9.689 15.107.568 3.268.834 5.9 1.083 8.442.231 2.197.408 4.268.816 6.555 1.952 11.44 7.311 20.573 15.954 27.091 7.027 5.303 16.379 9.024 27.843 11.04 14.871 2.65 27.506-2.323 32.226-4.576 7.525-3.595 15.582-12.238 22.537-20.082 6.922-7.789 10.577-12.4 11.394-24.767.267-3.976-.054-7.808-.354-11.547-.107-1.452-.249-2.941-.338-4.431-.053-1.09-.142-2.179-.248-3.341-.338-3.759-.656-7.644 0-11.639 1.402-8.244 6.051-11.893 14.268-11.076 10.701 1.016 20.07 8.28 23.832 18.502 3 8.135.586 16.632-1.33 23.495l-.32 1.126c-3.176 11.349-7.506 20.191-13.203 27.055-3.247 3.867-6.814 7.5-10.292 11.04-1.296 1.289-2.608 2.633-3.886 3.976-1.81 1.87-3.816 3.596-5.768 5.248-2.432 2.07-4.951 4.249-7.099 6.736-3.034 3.505-5.288 7.481-7.116 10.894-5.944 11.185-10.098 21.064-12.67 30.105-2.325 8.17-8.749 14.671-17.178 17.377-10.878 3.468-26.459 3.067-46.298-1.199-9.725-2.106-15.528-7.808-17.196-16.977-1.899-10.458-8.82-15.669-16.113-21.171-1.881-1.417-3.815-2.888-5.696-4.431-7.755-6.501-3.886-12.656.195-19.175 1.828-2.923 3.709-5.919 4.507-8.987 1.295-4.794-.373-9.859-1.97-14.762-.834-2.561-1.615-4.957-2.005-7.336-1.881-11.312-3.762-20.245-9.387-23.914-3.017-1.96-6.886-2.231-11.854-.798-.798.2-1.685.473-2.627.763-1.917.581-4.099 1.234-5.892 1.635-3.106.725-6.335 1.143-9.76 1.56-3.638.473-7.382.945-11.517 1.834-6.264 1.325-11.783 4.413-15.935 8.915-4.082 4.413-6.672 10.005-7.524 16.16-.355 2.615-.461 4.866.248 7.317 2.059 7.154 8.412 12.202 14.002 16.651 1.295 1.016 2.519 1.978 3.691 2.978l.195.163c5.413 4.575 12.156 10.276 11.907 18.102-.266 8.062.746 13.909 3.354 19.573 4.117 8.898 9.92 14.308 20.035 18.631l2.272.942c3.478 1.472 7.045 2.978 10.381 4.902 2.715 1.563 4.543 3.523 6.46 5.594 1.065 1.144 2.165 2.324 3.425 3.449 1.508 1.343 2.946 3.124 4.454 5.03 3.815 4.829 8.145 10.295 14.835 8.986 3.425-.671 6.796-3.085 10.381-5.627 3.123-2.234 6.353-4.541 9.991-6.012 6.158-2.469 14.835-3.049 24.028-3.685 5.572-.382 11.357-.781 16.627-1.617 11.996-1.942 20.106-6.245 24.791-13.163 1.402-2.034 2.325-4.34 3.195-6.573.674-1.742 1.365-3.523 2.289-5.157.674-1.253 1.738-2.215 2.768-3.177.568-.509 1.172-1.071 1.685-1.671.959-1.089 1.881-2.233 2.787-3.358.993-1.235 2.022-2.524 3.123-3.741 1.703-1.906 3.638-3.649 5.501-5.374 1.722-1.599 3.514-3.251 5.146-5.029 1.35-1.453 2.432-3.033 3.478-4.559 1.19-1.743 2.379-3.503 4.011-5.12 2.733-2.777 5.59-5.81 7.88-9.187 1.951-2.888 2.82-5.72 3.797-8.698.266-.927.568-1.87.923-2.851.728-2.16 2.059-4.213 3.336-6.209.763-1.182 1.526-2.38 2.165-3.577 2.432-4.559 4.508-9.115 6.193-13.546.461-1.253.887-2.523 1.331-3.759l.55-1.56c.834-2.361 1.722-4.759 2.592-7.083 2.484-6.735 5.074-13.69 6.405-20.045.853-4.05 1.597-8.37.692-12.637-3.088-14.653-16.965-29.924-29.689-32.72-5.874-1.272-13.292-1.199-20.869.253-12.581 2.415-17.231 8.624-16.593 22.188.143 3.159.444 6.356.692 9.442.604 6.682 1.171 13 .479 19.102-.391 3.505-1.544 6.646-2.36 8.679-1.846 4.559-6.069 12.348-11.339 20.791-5.183 8.297-12.157 14.344-19.148 16.613-13.256 4.303-31.02.036-41.348-9.95-5.182-4.994-10.701-13.545-7.63-25.783.195-.744.497-1.489.834-2.288.426-.943.834-1.942 1.065-3.032 1.597-2.832 3.602-5.374 5.554-7.844 4.401-5.574 8.553-10.821 6.957-18.339-.284-1.38-.888-2.85-1.526-4.431-1.295-3.231-2.627-6.555-1.065-8.533 2.733-3.486 6.46-7.118 10.417-10.95 6.832-6.645 13.913-13.545 15.918-20.009 2.041-6.481-2.129-12.928-3.904-15.651-1.917-2.96-4.117-6.01-6.424-9.278-1.792-2.506-3.656-5.103-5.413-7.68-1.455-2.161-2.874-4.231-4.276-6.283-3.23-4.757-6.282-9.224-9.423-14.018-1.242-1.906-2.484-3.958-3.708-5.919-2.041-3.304-4.135-6.7-6.247-9.587-4.614-6.319-9.813-8.915-15.51-7.735-5.643 1.181-11.766 5.647-17.071 9.714-.728.545-1.438 1.09-2.147 1.652-9.902 7.608-21.153 16.215-24.117 25.784-2.502 8.152 2.13 11.948 7.027 15.96.533.435 1.065.871 1.58 1.325 3.265 2.742 5.768 5.592 7.772 7.989 2.733 3.287 5.164 7.227 7.507 11.04 1.65 2.687 3.212 5.266 4.773 7.354 5.377 7.209 12.351 10.386 19.077 13.491 6.619 3.015 13.434 6.101 18.598 13.02l.018.744c.018.727.053 1.452-.142 2.124-6.14 6.791-13.753 8.479-23.282 5.229-2.91-.998-5.785-2.578-8.837-4.285-6.814-3.776-13.859-7.661-21.969-5.138-5.838 1.797-9.884 6.01-13.806 10.076-3.869 4.031-7.861 8.19-13.646 10.26-3.39 1.179-6.885 1.525-11.801 1.925-12.387.962-18.367 2.414-23.46 9.023-6.708 8.734-14.977 24.15-17.515 30.523-.994 2.542-1.615 4.448-1.899 5.846-2.165 11.112 4.507 19.792 10.541 26.146 1.455 1.507 3.07 2.924 4.614 4.267 1.384 1.218 2.822 2.471 4.153 3.795 2.697 2.76 4.862 6.048 6.939 9.225 1.083 1.615 2.147 3.268 3.301 4.848 8.323 11.348 10.825 21.244 8.145 32.102-1.952 7.79-6.388 17.65-16.592 20.337-3.744.981-7.79 1.47-12.049 1.962-3.957.489-8.074.961-12.085 1.906-3.514.816-6.832 1.869-10.044 2.923-4.49 1.416-8.731 2.797-13.114 3.359-7.684 1.052-14.498-.6-21.1-2.144-5.82-1.397-11.357-2.705-16.805-1.961v.254c5.43-.762 10.932.546 16.752 1.925 6.619 1.581 13.452 3.196 21.189 2.161 4.419-.58 8.642-1.943 13.15-3.377 3.194-1.034 6.53-2.088 10.044-2.905 4.011-.926 8.074-1.416 12.032-1.888 4.276-.509 8.323-.981 12.085-1.98 8.163-2.162 13.966-9.242 16.752-20.499 2.715-10.949.195-20.899-8.163-32.339-1.136-1.562-2.218-3.214-3.283-4.811-2.112-3.196-4.277-6.501-7.009-9.243-1.313-1.361-2.751-2.614-4.135-3.813-1.544-1.36-3.141-2.76-4.596-4.284-5.998-6.282-12.635-14.906-10.47-25.929.266-1.38.887-3.269 1.881-5.792 2.52-6.356 10.772-21.753 17.462-30.45 5.022-6.537 11.002-8.007 23.3-8.969 4.933-.382 8.429-.727 11.872-1.942 5.838-2.053 9.849-6.247 13.735-10.278 4.064-4.248 7.915-8.262 13.682-10.021 8.039-2.488 15.048 1.379 21.81 5.119 3.07 1.69 5.945 3.305 8.855 4.303 9.654 3.288 17.355 1.563 23.584-5.302l.018-.054c.195-.744.177-1.507.124-2.233v-.8170000000000001l-.036-.036c-5.182-6.973-12.049-10.113-18.686-13.146-6.708-3.05-13.664-6.246-18.988-13.4-1.544-2.088-3.123-4.648-4.774-7.354-2.342-3.813-4.773-7.735-7.524-11.058-2.005-2.397-4.507-5.248-7.79-8.026l-1.579-1.308c-4.845-3.976-9.423-7.735-6.957-15.706 2.946-9.496 14.144-18.066 24.01-25.656.728-.544 1.456-1.107 2.165-1.67 5.271-4.067 11.375-8.498 16.965-9.66 5.59-1.162 10.736 1.398 15.297 7.644 2.112 2.869 4.188 6.283 6.229 9.569 1.206 1.961 2.449 3.995 3.709 5.919 3.123 4.794 6.193 9.279 9.423 14.036 1.402 2.033 2.821 4.14 4.294 6.282 1.739 2.579 3.584 5.175 5.394 7.681 2.325 3.25 4.525 6.318 6.424 9.26 1.757 2.723 5.873 9.078 3.886 15.452-2.005 6.427-9.068 13.254-15.883 19.9-3.957 3.85-7.702 7.481-10.434 10.967-1.633 2.106-.284 5.502 1.065 8.788.621 1.562 1.225 3.051 1.491 4.376 1.58 7.407-2.555 12.619-6.921 18.14-1.952 2.487-3.975 5.048-5.572 7.897l-.018.056c-.231 1.071-.639 2.051-1.065 2.996-.319.817-.656 1.56-.834 2.306-2.413 9.658.32 18.901 7.72 26.038 10.363 10.04 28.233 14.307 41.578 10.004 7.027-2.307 14.055-8.389 19.236-16.705 5.288-8.479 9.548-16.27 11.375-20.845.834-2.051 1.97-5.211 2.378-8.734.691-6.137.124-12.455-.461-19.154-.284-3.088-.568-6.283-.711-9.425-.318-6.862.711-11.675 3.231-15.088 2.573-3.432 6.743-5.629 13.168-6.846 7.559-1.452 14.941-1.544 20.779-.254 12.652 2.76 26.424 17.957 29.494 32.52.904 4.213.159 8.497-.675 12.528-1.331 6.354-3.922 13.291-6.406 19.992-.852 2.342-1.739 4.738-2.573 7.099l-.568 1.58c-.408 1.234-.869 2.505-1.33 3.758-1.668 4.412-3.727 8.952-6.158 13.491-.639 1.198-1.42 2.397-2.164 3.577-1.278 1.998-2.627 4.067-3.373 6.265-.336.981-.639 1.942-.94 2.85-.924 2.96-1.81 5.774-3.727 8.625-2.308 3.378-5.146 6.392-7.879 9.151-1.615 1.616-2.84 3.414-4.029 5.139-1.029 1.544-2.111 3.104-3.442 4.558-1.614 1.762-3.425 3.432-5.164 5.012-1.863 1.725-3.78 3.485-5.519 5.41-1.065 1.217-2.13 2.488-3.123 3.741-.888 1.106-1.81 2.252-2.769 3.341-.515.581-1.101 1.144-1.669 1.671-1.047.961-2.094 1.942-2.803 3.231-.959 1.652-1.65 3.432-2.325 5.157-.87 2.232-1.774 4.539-3.142 6.554-4.648 6.864-12.705 11.113-24.648 13.037-5.253.854-11.021 1.253-16.61 1.635-9.21.636-17.905 1.217-24.099 3.703-3.656 1.471-6.921 3.777-10.044 6.011-3.549 2.543-6.903 4.939-10.275 5.593-6.548 1.288-10.825-4.104-14.623-8.88-1.526-1.906-2.946-3.722-4.472-5.065-1.26-1.125-2.36-2.288-3.407-3.449-1.952-2.089-3.762-4.049-6.513-5.63-3.354-1.925-6.957-3.449-10.417-4.902l-2.272-.944c-10.044-4.303-15.829-9.659-19.893-18.502-2.609-5.629-3.603-11.457-3.336-19.482.248-7.916-6.548-13.673-12.014-18.303l-.195-.144c-1.153-1-2.378-1.98-3.673-2.996-5.838-4.648-11.89-9.461-13.948-16.523-.674-2.397-.585-4.63-.213-7.209 1.704-12.637 10.629-22.188 23.265-24.875 4.117-.89 7.879-1.343 11.481-1.815 3.425-.436 6.672-.873 9.795-1.58 1.792-.399 3.975-1.053 5.91-1.635.923-.29 1.81-.563 2.627-.78 4.897-1.397 8.713-1.126 11.676.799 5.537 3.577 7.4 12.491 9.264 23.731.39 2.397 1.189 4.829 2.023 7.391 1.579 4.866 3.229 9.896 1.987 14.599-.816 3.051-2.697 6.028-4.507 8.933-4.135 6.61-8.057 12.854-.142 19.465 1.881 1.58 3.815 3.051 5.696 4.449 7.276 5.482 14.144 10.658 16.024 21.044 1.704 9.261 7.542 15.034 17.391 17.14 19.857 4.304 35.491 4.703 46.387 1.218 8.535-2.742 15.014-9.279 17.338-17.523 2.572-9.06 6.707-18.883 12.67-30.086 1.81-3.396 4.082-7.337 7.081-10.841 2.111-2.469 4.649-4.629 7.099-6.718 1.934-1.671 3.939-3.377 5.749-5.248 1.278-1.343 2.608-2.706 3.886-3.994 3.478-3.522 7.081-7.19 10.31-11.058 5.732-6.882 10.063-15.761 13.238-27.145l.32-1.126c1.951-6.863 4.348-15.415 1.33-23.641-3.797-10.277-13.221-17.613-24.027-18.666-8.34-.799-13.114 2.888-14.498 11.295-.692 4.013-.355 7.916-.018 11.692.088 1.162.178 2.252.248 3.342.106 1.507.213 2.978.337 4.431.302 3.721.621 7.57.373 11.511-.834 12.274-4.472 16.887-11.34 24.621-6.956 7.809-14.995 16.45-22.466 20.01-4.703 2.252-17.285 7.208-32.102 4.576-25.412-4.503-40.07-17.25-43.619-37.931-.373-2.269-.585-4.358-.781-6.537-.266-2.561-.515-5.175-1.1-8.479-.905-5.121-4.455-10.658-9.76-15.253-5.253-4.502-11.304-7.354-16.645-7.789-6.176-.49-10.878 3.178-14.658 6.156l-.55.435c-3.94 3.067-7.613 5.773-12.742 7.716-3.283 1.235-7.844 2.035-12.245 2.833-3.496.617-6.814 1.216-9.512 1.997-15.19 4.449-22.448 22.043-24.879 29.398l-.177.6c-1.101 3.285-2.431 7.335-1.455 12.057 1.473 7.117 7.098 13.09 11.552 16.85 10.097 8.57 16.326 20.844 21.046 31.757 1.012 2.342 1.491 4.903 1.952 7.39.497 2.578.976 5.265 2.094 7.753 2.431 5.556 5.43 9.933 8.891 13.001 3.23 2.887 7.187 4.829 10.985 6.718 2.928 1.471 5.945 2.96 8.606 4.866 5.377 3.813 10.648 8.896 8.873 17.558-.87 4.323-4.809 8.517-8.323 12.203-.905.962-1.739 1.87-2.538 2.76-4.951 5.556-8.074 9.296-9.938 15.523-1.384 4.648-1.491 12.965-.231 18.939 1.012 4.811 2.254 9.441 3.514 13.89h.248c-1.26-4.468-2.502-9.097-3.531-13.945-1.242-5.937-1.153-14.197.213-18.809z"/></g></svg>